<svg viewBox="0 0 1920 131" fill="none" xmlns="http://www.w3.org/2000/svg"><path d="M18.303 25.639C15.468 18.777 12.633 13.91 9.8 11.04 7.087 8.171 3.82 6.488 0 5.99V2.246l7.765-.375c8.135 0 15.284 1.56 21.447 4.679 6.162 3.119 11.216 9.482 15.16 19.089L73.583 95.63l39.011-91.887h9.429L68.776 129.129h-7.395L18.303 25.639ZM159.461 129.129c-8.504 0-15.961-1.997-22.371-5.989-6.409-3.992-11.401-9.42-14.975-16.281-3.451-6.987-5.177-14.847-5.177-23.58 0-9.732 1.726-18.028 5.177-24.89 3.574-6.862 8.443-12.04 14.606-15.533 6.162-3.618 13.126-5.427 20.891-5.427 7.642 0 14.545 1.56 20.707 4.678 6.163 3.12 11.032 7.548 14.606 13.287 3.574 5.615 5.362 12.102 5.362 19.463 0 2.37-.124 5.053-.37 8.047l-.37 3.743h-55.65c0 11.852 1.788 20.523 5.362 26.013 3.574 5.365 8.566 8.047 14.975 8.047 5.917 0 10.847-1.31 14.791-3.93 4.067-2.745 7.95-6.612 11.648-11.603l5.731 4.305c-3.574 5.614-8.073 10.292-13.496 14.035-5.3 3.743-12.449 5.615-21.447 5.615Zm13.866-50.903c0-11.728-1.355-20.025-4.067-24.89-2.712-4.99-6.594-7.486-11.648-7.486-4.683 0-8.504 2.558-11.462 7.673-2.835 4.99-4.253 13.225-4.253 24.703h31.43ZM274.604 41.171c2.219 1.622 3.821 3.431 4.807 5.428.986 1.871 1.479 2.87 1.479 2.994l-9.429 7.298c-.863-1.122-1.972-2.308-3.328-3.555-2.711-2.495-5.854-3.743-9.429-3.743-7.149 0-12.633 1.934-16.454 5.801l.369 2.807c.247 2.246.37 4.305.37 6.176v62.88h-24.035V63.629c0-6.363-.862-11.042-2.588-14.036-1.602-3.12-4.992-4.679-10.168-4.679h-1.849V39.3h18.303c4.191 0 7.457.561 9.799 1.684 2.465.998 4.375 2.745 5.731 5.24 6.656-5.863 14.421-8.795 23.295-8.795 5.3 0 9.676 1.247 13.127 3.742ZM361.863 129.129c-5.423 0-10.415-1.123-14.976-3.369-4.437-2.37-8.627-6.238-12.572-11.603l-17.748-23.58v36.68h-24.035V28.071c0-6.362-.863-11.041-2.588-14.035-1.726-3.12-5.177-4.679-10.354-4.679h-1.849V3.743h22.186c4.437 0 7.827.748 10.169 2.246 2.342 1.497 4.006 3.992 4.992 7.485.986 3.369 1.479 8.235 1.479 14.597v53.336l22.37-27.697c4.191-5.115 8.135-8.796 11.833-11.041 3.698-2.246 8.628-3.369 14.791-3.369h3.697v4.866c-3.697 0-7.025.748-9.983 2.245-2.959 1.498-5.793 3.868-8.505 7.112l-17.934 22.083 24.59 32.937c5.916 8.109 11.647 12.85 17.194 14.223v4.491c-.986.499-2.835.936-5.547 1.31-2.588.374-4.991.562-7.21.562ZM385.876 28.071c0-6.362-.863-11.041-2.588-14.035-1.726-3.12-5.177-4.679-10.354-4.679h-1.849V3.743h22.186c4.437 0 7.827.748 10.169 2.246 2.342 1.497 4.006 3.992 4.992 7.485.986 3.369 1.479 8.235 1.479 14.597V44.54c1.109-.873 3.019-2.059 5.731-3.556 4.93-2.37 9.799-3.555 14.606-3.555 9.983 0 18.303 2.62 24.959 7.86 6.779 5.115 10.168 13.91 10.168 26.387v55.581h-24.034V72.611c0-8.982-1.603-15.532-4.807-19.65-3.082-4.117-7.026-6.175-11.833-6.175-3.328 0-6.84 1.123-10.538 3.368a25.238 25.238 0 0 0-4.252 3.182v73.921h-24.035V28.071ZM526.377 129.129c-8.998 0-16.886-1.997-23.665-5.989-6.656-4.117-11.771-9.607-15.346-16.469-3.574-6.986-5.361-14.784-5.361-23.392 0-8.609 1.787-16.344 5.361-23.206 3.575-6.987 8.69-12.476 15.346-16.469 6.779-4.117 14.667-6.175 23.665-6.175 8.997 0 16.824 2.058 23.48 6.175 6.779 3.993 11.955 9.482 15.53 16.469 3.574 6.862 5.361 14.597 5.361 23.206 0 8.608-1.787 16.406-5.361 23.392-3.575 6.862-8.751 12.352-15.53 16.469-6.656 3.992-14.483 5.989-23.48 5.989Zm0-8.422c6.286 0 11.093-3.431 14.42-10.293 3.328-6.862 4.992-15.907 4.992-27.135 0-11.229-1.664-20.274-4.992-27.136-3.327-6.862-8.134-10.293-14.42-10.293s-11.093 3.43-14.421 10.293c-3.328 6.862-4.992 15.907-4.992 27.136 0 11.228 1.664 20.273 4.992 27.135 3.328 6.862 8.135 10.293 14.421 10.293ZM589.429 60.821c-3.328-6.986-6.163-11.852-8.505-14.597-2.342-2.87-4.992-4.429-7.95-4.678v-3.743l6.841-.374c8.258 0 15.16 1.621 20.707 4.865 5.669 3.244 10.6 9.42 14.79 18.527l16.27 35.932L656.726 39.3h9.984l-39.38 89.829h-6.656l-31.245-68.308ZM717.398 129.129c-8.998 0-16.886-1.997-23.665-5.989-6.656-4.117-11.771-9.607-15.345-16.469-3.575-6.986-5.362-14.784-5.362-23.392 0-8.609 1.787-16.344 5.362-23.206 3.574-6.987 8.689-12.476 15.345-16.469 6.779-4.117 14.667-6.175 23.665-6.175s16.824 2.058 23.48 6.175c6.779 3.993 11.956 9.482 15.53 16.469 3.574 6.862 5.362 14.597 5.362 23.206 0 8.608-1.788 16.406-5.362 23.392-3.574 6.862-8.751 12.352-15.53 16.469-6.656 3.992-14.482 5.989-23.48 5.989Zm0-8.422c6.286 0 11.093-3.431 14.421-10.293 3.328-6.862 4.992-15.907 4.992-27.135 0-11.229-1.664-20.274-4.992-27.136-3.328-6.862-8.135-10.293-14.421-10.293s-11.093 3.43-14.421 10.293c-3.328 6.862-4.992 15.907-4.992 27.136 0 11.228 1.664 20.273 4.992 27.135 3.328 6.862 8.135 10.293 14.421 10.293ZM814.047 129.129c-12.449 0-22.063-4.242-28.842-12.726-6.656-8.609-9.984-19.65-9.984-33.124 0-13.475 3.39-24.454 10.169-32.938 6.902-8.608 16.763-12.912 29.581-12.912 4.437 0 9.183.935 14.236 2.807a50.956 50.956 0 0 1 5.177 2.807V28.07c0-6.362-.863-11.041-2.589-14.035-1.725-3.12-5.176-4.679-10.353-4.679h-1.849V3.743h22.186c4.437 0 7.827.748 10.169 2.246 2.341 1.497 4.005 3.992 4.992 7.485.986 3.369 1.479 8.235 1.479 14.597v99.186h-15.715l-6.471-8.421h-.925c-1.109 1.746-2.835 3.493-5.177 5.24-4.19 3.368-9.552 5.053-16.084 5.053Zm3.697-8.422c4.561 0 8.69-1.996 12.387-5.988 1.356-1.373 2.774-3.431 4.253-6.176V51.464c-1.233-.998-2.712-1.933-4.437-2.807-3.945-1.871-7.704-2.807-11.278-2.807-12.326 0-18.489 12.476-18.489 37.429 0 11.602 1.356 20.772 4.068 27.51 2.835 6.612 7.334 9.918 13.496 9.918ZM949.912 129.129c-5.423 0-10.415-1.123-14.975-3.369-4.437-2.37-8.628-6.238-12.572-11.603l-17.749-23.58v36.68h-24.035V28.071c0-6.362-.862-11.041-2.588-14.035-1.726-3.12-5.177-4.679-10.353-4.679h-1.849V3.743h22.186c4.437 0 7.826.748 10.168 2.246 2.342 1.497 4.006 3.992 4.992 7.485.986 3.369 1.479 8.235 1.479 14.597v53.336l22.371-27.697c4.191-5.115 8.135-8.796 11.832-11.041 3.698-2.246 8.628-3.369 14.791-3.369h3.698v4.866c-3.698 0-7.026.748-9.984 2.245-2.958 1.498-5.793 3.868-8.505 7.112l-17.933 22.083 24.589 32.937c5.916 8.109 11.648 12.85 17.194 14.223v4.491c-.986.499-2.835.936-5.546 1.31-2.589.374-4.992.562-7.211.562ZM1007.72 129.129c-8.996 0-16.885-1.997-23.664-5.989-6.655-4.117-11.77-9.607-15.345-16.469-3.574-6.986-5.362-14.784-5.362-23.392 0-8.609 1.788-16.344 5.362-23.206 3.575-6.987 8.69-12.476 15.345-16.469 6.779-4.117 14.668-6.175 23.664-6.175 9 0 16.83 2.058 23.48 6.175 6.78 3.993 11.96 9.482 15.53 16.469 3.58 6.862 5.36 14.597 5.36 23.206 0 8.608-1.78 16.406-5.36 23.392-3.57 6.862-8.75 12.352-15.53 16.469-6.65 3.992-14.48 5.989-23.48 5.989Zm0-8.422c6.29 0 11.09-3.431 14.42-10.293 3.33-6.862 4.99-15.907 4.99-27.135 0-11.229-1.66-20.274-4.99-27.136-3.33-6.862-8.13-10.293-14.42-10.293-6.28 0-11.092 3.43-14.419 10.293-3.328 6.862-4.992 15.907-4.992 27.136 0 11.228 1.664 20.273 4.992 27.135 3.327 6.862 8.139 10.293 14.419 10.293ZM1195.33 127.257l-7.02-7.111c0 .249-1.61 1.31-4.81 3.181-3.08 1.872-7.03 3.618-11.83 5.24-4.69 1.622-9.74 2.433-15.16 2.433-16.03 0-27.67-2.682-34.95-8.047-7.14-5.365-10.72-12.352-10.72-20.96 0-7.735 2.59-14.41 7.77-20.024 5.17-5.74 12.32-10.98 21.44-15.72-4.31-3.868-8.81-9.108-13.49-15.72-4.69-6.738-7.03-13.849-7.03-21.335 0-9.232 3.27-16.406 9.8-21.521C1135.86 2.558 1144.92 0 1156.51 0c10.97 0 19.41 2.37 25.33 7.111 5.91 4.741 8.87 11.104 8.87 19.089 0 7.111-2.59 13.724-7.76 19.837-5.18 5.989-12.15 11.852-20.9 17.592l34.21 37.428c3.32-3.743 7.02-8.796 11.09-15.158 1.36-1.997 2.83-4.492 4.44-7.486l7.02 4.678a54.941 54.941 0 0 1-4.06 8.048c-3.7 6.362-7.77 11.977-12.21 16.842l17.94 19.276h-25.15ZM1156.51 7.486c-4.44 0-7.71 1.622-9.8 4.865-2.1 3.244-3.14 8.858-3.14 16.843 0 9.981 3.88 18.902 11.64 26.762 4.32-3.993 7.58-8.172 9.8-12.539 2.34-4.491 3.51-9.607 3.51-15.346 0-7.111-1.23-12.289-3.69-15.532-2.35-3.369-5.12-5.053-8.32-5.053Zm19.59 111.163c2.22-1.248 4.44-2.87 6.66-4.866a320.994 320.994 0 0 0-9.61-10.667 391.08 391.08 0 0 1-7.95-8.609l-17.75-19.276c-8.38 7.486-12.57 15.783-12.57 24.89 0 7.237 1.97 12.976 5.91 17.218 3.95 4.117 9.74 6.175 17.38 6.175 6.29 0 12.26-1.622 17.93-4.865ZM1240.03 28.071c0-6.362-.87-11.041-2.59-14.035-1.73-3.12-5.18-4.679-10.36-4.679h-1.84V3.743h50.84c12.69 0 24.16 2.557 34.39 7.673 10.35 4.99 15.53 14.971 15.53 29.943 0 9.731-2.71 17.28-8.14 22.644-5.3 5.365-11.28 8.92-17.93 10.667-6.66 1.747-12.76 2.62-18.31 2.62h-17.56v49.967h-24.03V28.071Zm35.12 41.733c7.28 0 13.25-2.245 17.94-6.737 4.68-4.491 7.02-12.04 7.02-22.644 0-10.48-2.34-17.966-7.02-22.457-4.56-4.492-10.23-6.737-17.01-6.737-3.58 0-6.35.25-8.32.748l-3.7.562v57.265h11.09ZM1364.51 129.129c-9.98 0-17.74-2.246-23.29-6.738-5.42-4.616-8.14-10.791-8.14-18.527 0-6.238 1.42-11.415 4.26-15.533 2.95-4.117 8.07-7.236 15.34-9.357 7.27-2.12 17.38-3.181 30.32-3.181h2.78c0-10.854-1.48-18.527-4.44-23.019-2.96-4.616-7.33-6.924-13.13-6.924-4.8 0-8.75 1.185-11.83 3.556-3.08 2.37-5.3 6.8-6.66 13.287h-10.16c0-4.242.24-7.86.73-10.854.62-2.995 1.92-5.615 3.89-7.86 3.82-4.367 13.06-6.55 27.73-6.55 12.33 0 21.69 3.306 28.1 9.918 6.53 6.488 9.8 16.282 9.8 29.382v50.528h-15.71l-6.48-8.421h-.92c-1.11 1.746-2.83 3.493-5.18 5.24-4.19 3.368-9.86 5.053-17.01 5.053Zm5.55-9.358c2.59 0 4.81-.499 6.66-1.497 1.85-1.123 3.63-2.62 5.36-4.491 1.6-1.747 2.83-3.805 3.7-6.176V84.214H1383c-8.75 0-15.1 1.622-19.04 4.866-3.94 3.12-5.92 8.047-5.92 14.784 0 5.116 1.05 9.046 3.15 11.79 2.09 2.745 5.05 4.117 8.87 4.117ZM1489.88 41.171c2.22 1.622 3.82 3.431 4.81 5.428.99 1.871 1.48 2.87 1.48 2.994l-9.43 7.298c-.86-1.122-1.97-2.308-3.33-3.555-2.71-2.495-5.85-3.743-9.43-3.743-7.15 0-12.63 1.934-16.45 5.801l.37 2.807c.24 2.246.37 4.305.37 6.176v62.88h-24.04V63.629c0-6.363-.86-11.042-2.59-14.036-1.6-3.12-4.99-4.679-10.16-4.679h-1.85V39.3h18.3c4.19 0 7.46.561 9.8 1.684 2.46.998 4.37 2.745 5.73 5.24 6.66-5.863 14.42-8.795 23.3-8.795 5.3 0 9.67 1.247 13.12 3.742ZM1538.5 129.129c-8.5 0-15.1-2.309-19.78-6.925-4.69-4.741-7.03-11.54-7.03-20.398V47.721h-11.09V39.3h11.09V22.457l9.25-11.228h14.79V39.3h20.33v8.421h-20.33v55.208c0 6.737.8 11.415 2.4 14.035 1.6 2.496 4.01 3.743 7.21 3.743 3.45 0 6.9-.811 10.35-2.433a55.511 55.511 0 0 0 4.26-2.62l2.59 5.24c-1.61 1.373-3.52 2.745-5.74 4.117-5.17 2.745-11.27 4.118-18.3 4.118ZM1576.87 63.629c0-6.363-.87-11.042-2.59-14.036-1.6-3.12-4.99-4.679-10.17-4.679h-1.85V39.3h18.3c4.19 0 7.46.561 9.8 1.684 2.47.998 4.38 2.745 5.73 5.24 6.29-5.863 15.29-8.795 27-8.795s20.46 2.807 26.25 8.421c5.92 5.49 8.87 14.16 8.87 26.013v55.394h-24.03V71.676c0-8.609-1.6-14.91-4.81-18.902-3.08-3.992-7.33-5.988-12.75-5.988-3.82 0-7.21.561-10.17 1.684-2.84.998-5.12 2.37-6.84 4.117l.55 2.62c.49 1.497.74 3.93.74 7.299v64.751h-24.03V63.629ZM1717.78 129.129c-8.5 0-15.96-1.997-22.37-5.989s-11.4-9.42-14.97-16.281c-3.45-6.987-5.18-14.847-5.18-23.58 0-9.732 1.73-18.028 5.18-24.89 3.57-6.862 8.44-12.04 14.6-15.533 6.17-3.618 13.13-5.427 20.89-5.427 7.65 0 14.55 1.56 20.71 4.678 6.16 3.12 11.03 7.548 14.61 13.287 3.57 5.615 5.36 12.102 5.36 19.463 0 2.37-.12 5.053-.37 8.047l-.37 3.743h-55.65c0 11.852 1.79 20.523 5.36 26.013 3.58 5.365 8.57 8.047 14.98 8.047 5.91 0 10.84-1.31 14.79-3.93 4.06-2.745 7.95-6.612 11.64-11.603l5.74 4.305c-3.58 5.614-8.08 10.292-13.5 14.035-5.3 3.743-12.45 5.615-21.45 5.615Zm13.87-50.903c0-11.728-1.36-20.025-4.07-24.89-2.71-4.99-6.59-7.486-11.65-7.486-4.68 0-8.5 2.558-11.46 7.673-2.83 4.99-4.25 13.225-4.25 24.703h31.43ZM1832.93 41.171c2.21 1.622 3.82 3.431 4.8 5.428.99 1.871 1.48 2.87 1.48 2.994l-9.43 7.298c-.86-1.122-1.97-2.308-3.32-3.555-2.72-2.495-5.86-3.743-9.43-3.743-7.15 0-12.64 1.934-16.46 5.801l.37 2.807c.25 2.246.37 4.305.37 6.176v62.88h-24.03V63.629c0-6.363-.87-11.042-2.59-14.036-1.6-3.12-4.99-4.679-10.17-4.679h-1.85V39.3h18.3c4.19 0 7.46.561 9.8 1.684 2.47.998 4.38 2.745 5.73 5.24 6.66-5.863 14.43-8.795 23.3-8.795 5.3 0 9.67 1.247 13.13 3.742ZM1882.1 129.129c-14.42 0-24.34-2.558-29.77-7.673-1.97-1.872-3.2-4.492-3.69-7.86-.5-3.494-.74-8.297-.74-14.41h6.47c1.11 6.487 3.63 11.727 7.58 15.72 3.94 3.867 9.43 5.801 16.45 5.801 12.33 0 18.49-4.242 18.49-12.726 0-3.243-1.36-5.926-4.07-8.047-2.59-2.12-6.78-4.491-12.57-7.111l-9.61-4.117c-7.89-3.494-13.81-7.299-17.75-11.416-3.95-4.117-5.92-9.108-5.92-14.971 0-7.86 3.21-13.974 9.62-18.34 6.53-4.367 15.03-6.55 25.51-6.55 14.42 0 24.34 2.557 29.77 7.672 1.97 1.872 3.2 4.492 3.69 7.86.5 3.369.74 8.172.74 14.41h-6.47c-1.11-6.487-3.63-11.665-7.58-15.532-3.94-3.993-9.43-5.989-16.45-5.989-5.3 0-9.25 1.185-11.84 3.556-2.58 2.245-3.88 5.302-3.88 9.17 0 3.119 1.05 5.739 3.14 7.86 2.22 1.996 5.55 3.992 9.99 5.988l11.09 4.679c9.12 3.868 15.65 7.797 19.6 11.79 4.07 3.867 6.1 8.983 6.1 15.346 0 7.984-3.51 14.16-10.54 18.527-6.9 4.242-16.02 6.363-27.36 6.363Z" fill="#F2F3F8"/></svg>