<svg width="80" height="96" viewBox="0 0 80 96" fill="none" xmlns="http://www.w3.org/2000/svg">
<path d="M15.8188 17.2375V34.5292H12.256V20.0284H5.30844V34.5292H1.74561V17.2375H15.8188Z" fill="white"/>
<path d="M25.6641 28.3655H21.2581V25.5864H25.6641C26.345 25.5864 26.8993 25.4756 27.3268 25.2539C27.7543 25.0243 28.0671 24.7076 28.265 24.3038C28.4629 23.9 28.5619 23.4448 28.5619 22.9381C28.5619 22.4234 28.4629 21.9444 28.265 21.5011C28.0671 21.0577 27.7543 20.7014 27.3268 20.4322C26.8993 20.163 26.345 20.0284 25.6641 20.0284H22.4932V34.5292H18.9304V17.2375H25.6641C27.018 17.2375 28.1779 17.483 29.1438 17.9738C30.1177 18.4568 30.8619 19.1258 31.3766 19.9809C31.8912 20.836 32.1485 21.8138 32.1485 22.9143C32.1485 24.0307 31.8912 24.9966 31.3766 25.8121C30.8619 26.6276 30.1177 27.257 29.1438 27.7004C28.1779 28.1438 27.018 28.3655 25.6641 28.3655Z" fill="white"/>
<path d="M39.6661 20.1947L34.9631 34.5292H31.1747L37.5996 17.2375H40.0105L39.6661 20.1947ZM43.5733 34.5292L38.8585 20.1947L38.4785 17.2375H40.9131L47.3737 34.5292H43.5733ZM43.3596 28.0923V30.8832H34.2268V28.0923H43.3596Z" fill="white"/>
<path d="M55.7464 26.9403H51.3047L51.2809 24.4938H55.0101C55.6672 24.4938 56.2056 24.4107 56.6252 24.2444C57.0448 24.0703 57.3576 23.8209 57.5634 23.4962C57.7772 23.1637 57.8841 22.7599 57.8841 22.2849C57.8841 21.7465 57.7812 21.311 57.5753 20.9785C57.3774 20.646 57.0646 20.4045 56.6371 20.2541C56.2175 20.1036 55.6751 20.0284 55.0101 20.0284H52.5398V34.5292H48.977V17.2375H55.0101C56.0156 17.2375 56.9142 17.3325 57.7059 17.5225C58.5056 17.7126 59.1825 18.0016 59.7368 18.3895C60.291 18.7775 60.7146 19.2683 61.0075 19.8621C61.3004 20.448 61.4469 21.1448 61.4469 21.9523C61.4469 22.6649 61.2846 23.3221 60.96 23.9238C60.6433 24.5255 60.1405 25.0164 59.4517 25.3964C58.7708 25.7765 57.8801 25.9863 56.7796 26.0259L55.7464 26.9403ZM55.592 34.5292H50.3309L51.7204 31.7502H55.592C56.2175 31.7502 56.7281 31.6512 57.124 31.4533C57.5199 31.2474 57.8128 30.9703 58.0028 30.6219C58.1929 30.2736 58.2879 29.8737 58.2879 29.4224C58.2879 28.9157 58.2008 28.4763 58.0266 28.1042C57.8603 27.7321 57.5911 27.447 57.219 27.2491C56.8469 27.0432 56.356 26.9403 55.7464 26.9403H52.3142L52.3379 24.4938H56.6133L57.4328 25.4558C58.4858 25.44 59.333 25.626 59.9743 26.014C60.6235 26.394 61.0946 26.8889 61.3875 27.4985C61.6884 28.1081 61.8388 28.7613 61.8388 29.4581C61.8388 30.5665 61.5973 31.5008 61.1144 32.2608C60.6314 33.013 59.9228 33.5791 58.9886 33.9591C58.0622 34.3392 56.93 34.5292 55.592 34.5292Z" fill="white"/>
<path d="M78.7148 25.4796V26.299C78.7148 27.6133 78.5367 28.793 78.1804 29.8381C77.8241 30.8832 77.3214 31.7739 76.6721 32.5102C76.0229 33.2386 75.247 33.7968 74.3444 34.1848C73.4497 34.5727 72.4561 34.7667 71.3635 34.7667C70.2788 34.7667 69.2852 34.5727 68.3826 34.1848C67.4879 33.7968 66.712 33.2386 66.0549 32.5102C65.3977 31.7739 64.887 30.8832 64.5228 29.8381C64.1666 28.793 63.9884 27.6133 63.9884 26.299V25.4796C63.9884 24.1573 64.1666 22.9777 64.5228 21.9405C64.8791 20.8954 65.3819 20.0047 66.0311 19.2683C66.6882 18.532 67.4642 17.9699 68.3588 17.5819C69.2614 17.194 70.2551 17 71.3397 17C72.4323 17 73.426 17.194 74.3206 17.5819C75.2232 17.9699 75.9991 18.532 76.6484 19.2683C77.3055 20.0047 77.8122 20.8954 78.1685 21.9405C78.5327 22.9777 78.7148 24.1573 78.7148 25.4796ZM75.1163 26.299V25.4558C75.1163 24.5374 75.0332 23.7298 74.8669 23.0331C74.7007 22.3363 74.4552 21.7505 74.1306 21.2754C73.806 20.8004 73.4101 20.4441 72.943 20.2066C72.4759 19.9611 71.9415 19.8384 71.3397 19.8384C70.738 19.8384 70.2036 19.9611 69.7365 20.2066C69.2772 20.4441 68.8853 20.8004 68.5607 21.2754C68.244 21.7505 68.0025 22.3363 67.8363 23.0331C67.67 23.7298 67.5869 24.5374 67.5869 25.4558V26.299C67.5869 27.2095 67.67 28.0171 67.8363 28.7217C68.0025 29.4185 68.248 30.0083 68.5726 30.4913C68.8972 30.9663 69.2931 31.3266 69.7602 31.572C70.2273 31.8175 70.7618 31.9402 71.3635 31.9402C71.9652 31.9402 72.4996 31.8175 72.9668 31.572C73.4339 31.3266 73.8258 30.9663 74.1425 30.4913C74.4592 30.0083 74.7007 29.4185 74.8669 28.7217C75.0332 28.0171 75.1163 27.2095 75.1163 26.299Z" fill="white"/>
<path d="M0 68.2156H8.07197C8.13278 69.4925 8.54321 70.511 9.30329 71.2711C10.033 72.0615 11.0667 72.4568 12.4044 72.4568C13.6509 72.4568 14.6846 72.0159 15.5055 71.1343C16.1135 70.435 16.4176 69.5989 16.4176 68.626C16.4176 67.5011 16.0223 66.6042 15.2319 65.9354C14.5326 65.3577 13.5597 65.0689 12.3132 65.0689C11.7963 65.0689 11.3555 65.1297 10.9906 65.2513V59.9156C12.3284 60.098 13.4077 59.8396 14.2286 59.1403C14.8974 58.5627 15.2319 57.8482 15.2319 56.9969C15.2319 56.0848 14.9582 55.3551 14.411 54.8079C13.8637 54.2606 13.1188 53.987 12.1764 53.987C11.2339 53.987 10.5042 54.2454 9.98735 54.7623C9.28808 55.4008 8.93845 56.2976 8.93845 57.4529H1.59615C1.74817 54.6255 2.73626 52.2997 4.56043 50.4755C6.44541 48.4993 9.12087 47.5112 12.5868 47.5112C15.8095 47.5112 18.3329 48.4081 20.1571 50.2019C21.7989 51.8436 22.6198 53.8046 22.6198 56.0848C22.6198 57.4834 22.3157 58.7299 21.7077 59.8244C21.13 60.8885 20.3547 61.6637 19.3818 62.1502C20.8716 62.6974 22.0725 63.6247 22.9846 64.9321C23.8359 66.1786 24.2615 67.6683 24.2615 69.4013C24.2615 72.0463 23.3646 74.2657 21.5709 76.0595C19.4123 78.2181 16.3872 79.2974 12.4956 79.2974C8.93845 79.2974 6.03498 78.2485 3.78516 76.1507C1.56575 74.1137 0.304029 71.4687 0 68.2156Z" fill="white"/>
<path d="M42.1662 55.5376C41.4669 54.8991 40.6613 54.5799 39.7492 54.5799C38.8371 54.5799 38.0314 54.8991 37.3321 55.5376C36.5417 56.2064 35.9032 57.3313 35.4168 58.9123C34.9303 60.4628 34.6871 61.983 34.6871 63.4727C34.6871 64.8409 34.9151 66.3306 35.3712 67.9419C35.8576 69.5229 36.5113 70.6782 37.3321 71.4079C38.0314 72.0463 38.8371 72.3656 39.7492 72.3656C40.6613 72.3656 41.4669 72.0463 42.1662 71.4079C42.9567 70.7086 43.5951 69.5837 44.0816 68.0332C44.568 66.4522 44.8113 64.9473 44.8113 63.5183C44.8113 62.0894 44.5528 60.5692 44.036 58.9579C43.5495 57.3465 42.9263 56.2064 42.1662 55.5376ZM52.6552 63.4271C52.6552 68.7476 51.1503 72.8824 48.1404 75.8315C45.7994 78.1421 43.0023 79.2974 39.7492 79.2974C36.4961 79.2974 33.699 78.1421 31.358 75.8315C28.3481 72.8824 26.8431 68.7476 26.8431 63.4271C26.8431 58.0762 28.3481 53.9262 31.358 50.9771C33.699 48.6665 36.4961 47.5112 39.7492 47.5112C43.0023 47.5112 45.7994 48.6665 48.1404 50.9771C51.1503 53.9262 52.6552 58.0762 52.6552 63.4271Z" fill="white"/>
<path d="M69.511 55.5376C68.8117 54.8991 68.0061 54.5799 67.094 54.5799C66.1819 54.5799 65.3762 54.8991 64.6769 55.5376C63.8865 56.2064 63.248 57.3313 62.7616 58.9123C62.2751 60.4628 62.0319 61.983 62.0319 63.4727C62.0319 64.8409 62.2599 66.3306 62.7159 67.9419C63.2024 69.5229 63.8561 70.6782 64.6769 71.4079C65.3762 72.0463 66.1819 72.3656 67.094 72.3656C68.0061 72.3656 68.8117 72.0463 69.511 71.4079C70.3015 70.7086 70.9399 69.5837 71.4264 68.0332C71.9128 66.4522 72.1561 64.9473 72.1561 63.5183C72.1561 62.0894 71.8976 60.5692 71.3808 58.9579C70.8943 57.3465 70.2711 56.2064 69.511 55.5376ZM80 63.4271C80 68.7476 78.4951 72.8824 75.4852 75.8315C73.1441 78.1421 70.3471 79.2974 67.094 79.2974C63.8409 79.2974 61.0438 78.1421 58.7028 75.8315C55.6929 72.8824 54.1879 68.7476 54.1879 63.4271C54.1879 58.0762 55.6929 53.9262 58.7028 50.9771C61.0438 48.6665 63.8409 47.5112 67.094 47.5112C70.3471 47.5112 73.1441 48.6665 75.4852 50.9771C78.4951 53.9262 80 58.0762 80 63.4271Z" fill="white"/>
</svg>
