<svg width="160" height="96" viewBox="0 0 160 96" fill="none" xmlns="http://www.w3.org/2000/svg">
<g clip-path="url(#clip0_1219_4508)">
<path d="M16.606 27.8215C17.6236 28.2378 18.6181 28.816 19.6126 29.5793C19.8901 29.7874 20.1214 29.9031 20.3064 29.9031C20.7921 29.9031 21.1159 29.163 21.2547 27.7059H22.0873C21.9948 29.3711 21.9485 32.3084 21.9485 36.5408H21.1159C20.9078 34.7368 20.6071 33.3723 20.2371 32.424C19.867 31.4758 19.2426 30.6432 18.3637 29.9493C17.7624 29.3711 17.0454 28.9317 16.2359 28.6079C15.4264 28.3072 14.5938 28.1453 13.7149 28.1453C11.2634 28.1453 9.43625 29.348 8.23359 31.7533C7.03093 34.1586 6.45273 37.1422 6.45273 40.727C6.45273 44.2887 7.07719 47.2491 8.32611 49.6313C9.57502 52.0135 11.4253 53.2162 13.8768 53.2162C14.7095 53.2162 15.5189 53.0543 16.3515 52.7536C17.161 52.4529 17.8549 52.0135 18.4099 51.4122C19.3119 50.7415 19.9364 49.8857 20.2833 48.845C20.6302 47.8273 20.9078 46.324 21.1159 44.3581H21.9485C21.9485 48.7756 21.9948 51.8285 22.0873 53.5631H21.2547C21.1853 52.7767 21.0697 52.2217 20.954 51.8979C20.8153 51.5741 20.6302 51.4122 20.399 51.4122C20.2139 51.4122 19.9595 51.5047 19.6357 51.7128C18.5487 52.4992 17.4848 53.0774 16.4903 53.4937C15.4958 53.8869 14.2931 54.095 12.8823 54.095C10.292 54.095 8.04857 53.5631 6.10581 52.5223C4.16305 51.4816 2.65973 49.9551 1.59584 47.9661C0.531946 45.9771 0 43.618 0 40.8658C0 38.1829 0.555074 35.8239 1.64209 33.7423C2.72911 31.6839 4.25557 30.065 6.22145 28.9317C8.18734 27.7984 10.4076 27.2202 12.9286 27.2202C14.3394 27.1971 15.5883 27.4052 16.606 27.8215Z" fill="white"/>
<path d="M30.7371 37.5585C31.8241 35.292 33.8131 34.1587 36.681 34.1587C38.5775 34.1587 39.9189 34.6444 40.7053 35.5927C41.1216 36.0552 41.4222 36.6565 41.6073 37.3966C41.7923 38.1367 41.8848 39.1081 41.8848 40.3339V50.1633C41.8848 51.1579 42.0467 51.8517 42.3936 52.2217C42.7405 52.5918 43.3419 52.7768 44.2207 52.7768V53.54C41.6766 53.4475 36.9816 53.4475 34.6457 53.54V52.7768C35.3858 52.7768 35.8946 52.5918 36.1722 52.2217C36.4728 51.8517 36.6116 51.1579 36.6116 50.1633V38.8075C36.6116 37.813 36.4497 37.0497 36.1259 36.5409C35.8021 36.0321 35.2008 35.7777 34.345 35.7777C33.3274 35.7777 32.4717 36.1709 31.7778 36.9572C31.084 37.7436 30.7371 38.7612 30.7371 39.9639V50.1633C30.7371 51.1579 30.8758 51.8517 31.1765 52.2217C31.4772 52.5918 31.986 52.7768 32.703 52.7768V53.54C30.367 53.4475 25.672 53.4475 23.1279 53.54V52.7768C23.9837 52.7768 24.585 52.5918 24.9319 52.2217C25.2788 51.8517 25.4639 51.1579 25.4639 50.1633V29.3712C25.4639 28.2611 25.2788 27.4284 24.9319 26.9196C24.585 26.4108 23.9837 26.1564 23.1279 26.1564V25.3932C23.9143 25.4626 24.6544 25.5088 25.3945 25.5088C27.5223 25.5088 29.28 25.3469 30.7371 25V37.5585Z" fill="white"/>
<path d="M92.0268 52.2218C92.3737 52.5919 92.9751 52.7769 93.8308 52.7769V53.5401C91.4023 53.4476 86.823 53.4476 84.487 53.5401V52.7769C85.1346 52.7769 85.5972 52.5919 85.8516 52.2218C86.106 51.8518 86.2448 51.1579 86.2448 50.1403V38.8075C86.2448 37.7899 86.0829 37.0267 85.7822 36.5179C85.4816 36.009 84.9034 35.7778 84.0476 35.7778C83.1456 35.7778 82.3593 36.1478 81.6886 36.911C81.0178 37.6743 80.6247 38.5994 80.509 39.6864V40.334V50.1634C80.509 51.1579 80.6709 51.8518 80.9716 52.2218C81.2722 52.5919 81.8273 52.7769 82.6368 52.7769V53.5401C80.3009 53.4476 75.8371 53.4476 73.5012 53.5401V52.7769C74.1488 52.7769 74.6114 52.5919 74.8658 52.2218C75.1202 51.8518 75.2589 51.1579 75.2589 50.1634V38.8075C75.2589 37.7899 75.1202 37.0267 74.8658 36.5179C74.5882 36.009 74.0794 35.7778 73.2931 35.7778C72.3217 35.7778 71.4891 36.1941 70.7952 37.0035C70.1014 37.813 69.7545 38.8307 69.7545 40.0102V50.1634C69.7545 51.1579 69.8932 51.8518 70.1476 52.2218C70.4021 52.5919 70.8646 52.7769 71.5122 52.7769V53.5401C69.3613 53.4476 64.7819 53.4476 62.1685 53.5401V52.7769C63.0473 52.7769 63.6487 52.5919 63.9956 52.2218C64.3425 51.8518 64.5044 51.1579 64.5044 50.1634V38.6688C64.5044 37.5586 64.3425 36.726 63.9956 36.2172C63.6487 35.7084 63.0473 35.454 62.1685 35.454V34.6907C62.9548 34.7601 63.6949 34.8064 64.435 34.8064C66.6091 34.8064 68.3899 34.6445 69.7776 34.2976V37.5817C70.8415 35.3152 72.738 34.1819 75.444 34.1819C77.2942 34.1819 78.6356 34.6676 79.4683 35.6159C79.9308 36.1015 80.2315 36.8416 80.3703 37.813C80.9947 36.4947 81.8273 35.5696 82.845 35.0145C83.8626 34.4595 85.0653 34.1819 86.4298 34.1819C88.2801 34.1819 89.6215 34.6676 90.4541 35.6159C90.8473 36.0553 91.1248 36.6566 91.2867 37.3967C91.4486 38.1599 91.5411 39.1313 91.5411 40.3571V50.1865C91.4949 51.1579 91.6567 51.8518 92.0268 52.2218Z" fill="white"/>
<path d="M110.668 36.5872C111.894 38.2061 112.495 40.5421 112.495 43.6181C112.495 47.2029 111.709 49.8396 110.159 51.5279C108.61 53.2162 106.597 54.072 104.123 54.072C102.434 54.072 101.07 53.6557 100.029 52.7999C99.1502 52.7306 98.2713 52.8231 97.3924 53.1006C96.5136 53.3781 95.8197 53.7251 95.3109 54.1645L94.7558 53.8407C94.9177 53.2394 95.0102 52.5455 95.0102 51.8054V29.3712C95.0102 28.2611 94.8252 27.4284 94.4783 26.9196C94.1314 26.4108 93.5301 26.1564 92.6743 26.1564V25.3932C93.4375 25.4626 94.1776 25.5088 94.9409 25.5088C97.0686 25.5088 98.8264 25.3469 100.283 25V37.6279C100.792 36.5178 101.532 35.6389 102.504 35.0607C103.475 34.4594 104.608 34.1587 105.857 34.1587C107.846 34.1587 109.442 34.9682 110.668 36.5872ZM105.973 51.0422C106.621 49.5389 106.967 47.2261 106.967 44.15C106.967 41.1434 106.69 39.0156 106.135 37.6973C105.58 36.4021 104.77 35.7546 103.73 35.7546C102.943 35.7546 102.226 36.0321 101.602 36.6103C100.954 37.1885 100.515 37.9517 100.307 38.9231V52.3374C101.116 52.985 102.018 53.3319 103.013 53.3319C104.331 53.3088 105.325 52.5455 105.973 51.0422Z" fill="white"/>
<path d="M129.078 48.1512L129.725 48.3594C129.24 49.9321 128.361 51.2967 127.112 52.4068C125.863 53.5169 124.29 54.072 122.417 54.072C119.826 54.072 117.791 53.2394 116.265 51.5973C114.738 49.9552 113.975 47.5268 113.975 44.312C113.975 41.0278 114.785 38.5068 116.427 36.7722C118.069 35.0376 120.22 34.1588 122.926 34.1588C127.505 34.1588 129.795 36.8647 129.795 42.2767H119.526C119.503 42.6468 119.48 43.225 119.48 43.9882C119.48 45.584 119.711 46.9254 120.15 48.0125C120.59 49.0764 121.191 49.8627 121.908 50.3484C122.625 50.8341 123.388 51.0885 124.221 51.0885C126.256 51.0885 127.852 50.094 129.078 48.1512ZM120.543 36.5641C119.965 37.6511 119.618 39.3163 119.456 41.5829H125.192C125.238 39.6632 125.053 38.0674 124.637 36.8185C124.221 35.5696 123.573 34.9451 122.718 34.9451C121.839 34.9451 121.122 35.4771 120.543 36.5641Z" fill="white"/>
<path d="M145.059 35.1533C145.614 35.8009 145.892 36.6103 145.892 37.5355C145.892 38.4375 145.638 39.1776 145.106 39.7558C144.574 40.334 143.903 40.6115 143.047 40.6115C142.215 40.6115 141.567 40.4033 141.081 39.9639C140.596 39.5476 140.341 38.9694 140.341 38.2756C140.341 37.096 140.873 36.1478 141.937 35.4308C141.845 35.4077 141.683 35.3845 141.498 35.3845C141.243 35.3845 141.058 35.4077 140.919 35.4539C139.994 35.5927 139.208 36.1709 138.56 37.1423C137.913 38.1137 137.589 39.1082 137.589 40.1489V49.8396C137.589 50.9497 137.866 51.7361 138.422 52.1755C138.977 52.615 139.832 52.8231 141.035 52.8231V53.5863C140.688 53.5863 140.411 53.5632 140.202 53.5401C137.728 53.4707 133.079 53.4707 130.743 53.5401C130.558 53.5632 130.304 53.5863 130.003 53.5863V52.8231C130.882 52.8231 131.483 52.6381 131.83 52.268C132.177 51.898 132.339 51.2041 132.339 50.2096V38.6687C132.339 37.5586 132.177 36.726 131.83 36.2172C131.483 35.7083 130.882 35.4539 130.003 35.4539V34.6907C130.789 34.7601 131.529 34.8063 132.269 34.8063C134.444 34.8063 136.224 34.6444 137.612 34.2975V37.6974C138.075 36.6566 138.745 35.8009 139.624 35.1533C140.503 34.5057 141.498 34.1819 142.585 34.1819C143.672 34.1588 144.504 34.5057 145.059 35.1533Z" fill="white"/>
<path d="M155.166 34.5057C155.953 34.7369 156.531 34.9913 156.947 35.292C157.202 35.4539 157.41 35.5464 157.595 35.5464C157.803 35.5464 158.011 35.4308 158.15 35.1995C158.312 34.9682 158.404 34.6444 158.45 34.205H159.214C159.121 35.4539 159.075 37.5817 159.075 40.6346H158.312C158.104 39.0388 157.618 37.6742 156.878 36.5872C156.138 35.5002 155.051 34.9682 153.64 34.9682C152.9 34.9682 152.298 35.1764 151.836 35.5927C151.35 36.009 151.119 36.5872 151.119 37.3042C151.119 38.1368 151.396 38.8537 151.951 39.4319C152.507 40.0333 153.385 40.7502 154.588 41.606L155.652 42.3692C157.132 43.4793 158.242 44.497 158.936 45.3758C159.653 46.2547 160 47.3417 160 48.66C160 49.7239 159.699 50.6722 159.075 51.5048C158.45 52.3374 157.618 52.9619 156.577 53.4013C155.536 53.8407 154.38 54.0489 153.108 54.0489C151.766 54.0489 150.633 53.7945 149.685 53.2856C148.899 52.8925 148.343 52.6381 147.997 52.5224C147.742 52.453 147.534 52.5224 147.349 52.7537C147.164 52.985 147.025 53.3319 146.933 53.7945H146.169C146.262 52.4068 146.308 49.9783 146.308 46.486H147.071C147.557 50.9728 149.199 53.2163 151.998 53.2163C152.715 53.2163 153.316 53.0081 153.802 52.5687C154.311 52.1524 154.542 51.4817 154.542 50.6259C154.542 49.9552 154.38 49.3307 154.079 48.7988C153.779 48.2669 153.385 47.7812 152.923 47.3649C152.46 46.9486 151.766 46.3704 150.841 45.6534C149.754 44.7745 148.922 44.0807 148.343 43.5256C147.765 42.9937 147.28 42.3461 146.886 41.6291C146.493 40.9121 146.285 40.0795 146.285 39.1775C146.285 37.6279 146.886 36.379 148.112 35.477C149.338 34.575 150.818 34.1356 152.576 34.1356C153.547 34.1587 154.38 34.2744 155.166 34.5057Z" fill="white"/>
<path d="M43.6427 60.1778C42.8564 60.1778 42.2319 60.1547 41.7925 60.1316V60.5016C42.2782 60.5248 42.6251 60.5941 42.8564 60.6866C43.0876 60.7792 43.2495 60.9642 43.3189 61.1723C43.3883 61.4036 43.4346 61.7505 43.4346 62.2131V68.1339L37.6757 60.1084C37.2131 60.1547 36.658 60.1547 36.0104 60.1547C35.2935 60.1547 34.7384 60.1316 34.3221 60.1084V60.4785C34.7615 60.5016 35.0622 60.5479 35.2703 60.6173C35.4785 60.6866 35.5941 60.8254 35.6867 61.0336C35.756 61.2417 35.8023 61.5655 35.8023 62.0281V69.0128C35.8023 69.4753 35.756 69.8222 35.6867 70.0535C35.6173 70.2848 35.4785 70.4467 35.2703 70.5623C35.0622 70.6548 33.8364 71.2562 33.0963 69.591L28.8639 60.0391H28.5863L24.5852 69.0821C24.377 69.5447 24.1689 69.9379 23.9376 70.2154C23.7063 70.493 23.4288 70.678 23.105 70.7705V71.1405C23.4288 71.0943 25.9497 71.0943 26.3198 71.1405V70.7705C25.8341 70.7242 25.464 70.6086 25.2559 70.4467C25.0246 70.2617 24.9321 70.0304 24.9321 69.7066C24.9321 69.4059 25.0246 69.0128 25.2328 68.5502L25.8572 67.1856H30.2516L31.1767 69.244C31.3386 69.6141 31.4311 69.8916 31.4311 70.0998C31.4311 70.3311 31.3154 70.493 31.1073 70.5855C30.8991 70.678 30.5753 70.7474 30.1128 70.7705V71.1405C30.6216 71.0943 37.4444 71.0943 37.8607 71.1405V70.7705C37.375 70.7474 37.0281 70.678 36.7968 70.5855C36.5655 70.493 36.4036 70.3079 36.3342 70.0998C36.2649 69.8685 36.2186 69.5216 36.2186 69.059V61.2417L43.4346 71.2562H43.8509V62.2362C43.8509 61.7737 43.8971 61.4267 43.9665 61.1955C44.0359 60.9642 44.1747 60.8023 44.3828 60.6866C44.591 60.5941 44.8916 60.5248 45.3311 60.5016V60.1316C44.9379 60.1547 44.3597 60.1778 43.6427 60.1778ZM25.996 66.8156L28.0544 62.2362L30.0897 66.8156H25.996Z" fill="white"/>
<path d="M55.0681 61.4962C56.0163 62.3982 56.4789 63.7396 56.4789 65.4742C56.4789 66.6075 56.2476 67.602 55.785 68.4577C55.3225 69.3135 54.6518 69.9611 53.796 70.4236C52.9172 70.8862 51.8764 71.1175 50.6506 71.1175L49.6098 71.0943C48.9391 71.0712 48.4303 71.0481 48.1297 71.0481C47.1351 71.0481 46.395 71.0712 45.8862 71.0943V70.7243C46.3257 70.7012 46.6263 70.6549 46.8345 70.5855C47.0426 70.5161 47.1583 70.3774 47.2508 70.1692C47.3202 69.9611 47.3664 69.6373 47.3664 69.1747V62.0281C47.3664 61.5656 47.3202 61.2418 47.2508 61.0336C47.1814 60.8255 47.0426 60.6867 46.8345 60.6173C46.6263 60.5479 46.3257 60.5017 45.8862 60.4786V60.1085C46.3025 60.1548 46.8807 60.1548 47.644 60.1548L49.1704 60.1316C49.9799 60.1085 50.535 60.0854 50.8125 60.0854C52.709 60.1316 54.1198 60.5942 55.0681 61.4962ZM49.5173 60.5711C49.3323 60.6636 49.1935 60.8023 49.1242 61.0336C49.0548 61.2418 49.0085 61.5656 49.0085 62.005V69.221C49.0085 69.6604 49.0548 69.9842 49.1242 70.1923C49.1935 70.4005 49.3323 70.5624 49.5173 70.6549C49.7024 70.7474 49.9799 70.7705 50.3731 70.7705C51.4601 70.7705 52.339 70.5855 52.9634 70.1923C53.5879 69.7992 54.0273 69.221 54.2817 68.4577C54.5361 67.6945 54.6518 66.7231 54.6518 65.5205C54.6518 63.7627 54.328 62.4676 53.6804 61.6581C53.0328 60.8486 51.9227 60.4323 50.3499 60.4323C50.003 60.4554 49.7255 60.5017 49.5173 60.5711Z" fill="white"/>
<path d="M65.2445 65.9367V69.1978C65.2445 69.6603 65.2908 69.9841 65.3833 70.1923C65.4758 70.4004 65.6377 70.5392 65.8921 70.6086C66.1234 70.678 66.5166 70.7242 67.0717 70.7473V71.1174C66.4472 71.0711 62.6079 71.0711 62.0991 71.1174V70.7473C62.5386 70.7242 62.8392 70.678 63.0474 70.6086C63.2555 70.5392 63.3712 70.4004 63.4637 70.1923C63.5331 69.9841 63.5793 69.6603 63.5793 69.1978V60.2472C63.5793 59.7846 63.5331 59.4609 63.4637 59.2527C63.3943 59.0445 63.2555 58.9058 63.0474 58.8364C62.8392 58.767 62.5386 58.7208 62.0991 58.6976V58.3276C62.6079 58.3738 63.348 58.3738 64.2963 58.3738L66.239 58.3507C66.4703 58.3276 66.7247 58.3276 67.0254 58.3276C68.4362 58.3276 69.5232 58.6514 70.2633 59.299C71.0034 59.9465 71.3735 60.8023 71.3735 61.8893C71.3735 62.56 71.2347 63.1845 70.934 63.7858C70.6334 64.3871 70.1477 64.8959 69.4307 65.3123C68.7369 65.7286 67.7886 65.9367 66.6322 65.9367H65.2445ZM65.7534 58.8133C65.5683 58.9058 65.4296 59.0445 65.3602 59.2758C65.2908 59.484 65.2445 59.8078 65.2445 60.2472V65.5898H66.4472C67.6267 65.5898 68.4362 65.266 68.8988 64.6415C69.3613 64.0171 69.5695 63.1613 69.5695 62.0974C69.5695 60.9179 69.3382 60.0622 68.8756 59.5071C68.4131 58.952 67.6499 58.6745 66.5628 58.6745C66.2159 58.6745 65.9384 58.7208 65.7534 58.8133Z" fill="white"/>
<path d="M100.884 62.2595C100.884 62.8839 100.908 63.3696 100.931 63.7397H100.514C100.445 62.9071 100.329 62.2595 100.167 61.7969C100.006 61.3575 99.7512 61.0337 99.4042 60.8255C99.0573 60.6174 98.5485 60.5249 97.9009 60.5249H96.7445V68.9898C96.7445 69.4986 96.7908 69.8686 96.8833 70.0999C96.9758 70.3312 97.1377 70.4931 97.3921 70.5625C97.6234 70.655 98.0166 70.7012 98.5716 70.7244V71.0944C97.9472 71.0482 93.8304 71.0482 93.2522 71.0944V70.7244C93.7841 70.7012 94.1773 70.655 94.4317 70.5625C94.663 70.4699 94.848 70.3312 94.9405 70.0999C95.033 69.8686 95.0793 69.4986 95.0793 68.9898V60.5249H93.9229C93.2753 60.5249 92.7665 60.6174 92.4196 60.8255C92.0726 61.0337 91.8182 61.3575 91.6563 61.7969C91.4944 62.2364 91.3788 62.8839 91.3094 63.7397H90.8931C90.9394 63.3465 90.9394 62.8608 90.9394 62.2595C90.9394 61.635 90.8931 60.9181 90.8237 60.1317C91.8182 60.178 93.5297 60.178 95.9119 60.178C98.2941 60.178 99.9824 60.1548 101 60.1317C100.931 60.9181 100.884 61.635 100.884 62.2595Z" fill="white"/>
<path d="M112.449 60.5017C112.032 60.5248 111.709 60.5942 111.5 60.6867C111.292 60.7792 111.154 60.9643 111.084 61.1955C111.015 61.4268 110.969 61.7737 110.969 62.2363V71.21H110.552L103.336 61.1955V69.0128C103.336 69.4754 103.383 69.8223 103.452 70.0536C103.521 70.2849 103.683 70.4468 103.914 70.5393C104.146 70.6318 104.493 70.7012 104.978 70.7243V71.0944C104.539 71.0481 101.856 71.0481 101.463 71.0944V70.7243C101.879 70.7012 102.203 70.6318 102.411 70.5393C102.619 70.4468 102.758 70.2617 102.827 70.0305C102.897 69.7992 102.943 69.4523 102.943 68.9897V62.005C102.943 61.5425 102.897 61.2187 102.827 61.0105C102.758 60.8024 102.619 60.6636 102.411 60.5942C102.203 60.5248 101.902 60.4786 101.463 60.4554V60.0854C101.856 60.1316 102.411 60.1316 103.151 60.1316C103.799 60.1316 104.354 60.1085 104.816 60.0854L110.575 68.1108V62.2363C110.575 61.7737 110.529 61.4268 110.46 61.1955C110.39 60.9643 110.228 60.8024 109.997 60.7098C109.766 60.6173 109.419 60.548 108.933 60.5248V60.1548C109.373 60.201 109.974 60.201 110.784 60.201C111.5 60.201 112.056 60.1779 112.472 60.1548V60.5017H112.449Z" fill="white"/>
<path d="M122.001 71.1175C121.215 71.0713 114.137 71.0713 112.981 71.1175V70.7475C113.42 70.7244 113.721 70.6781 113.929 70.6087C114.137 70.5393 114.253 70.4006 114.346 70.1924C114.415 69.9843 114.461 69.6605 114.461 69.1979V62.0513C114.461 61.5888 114.415 61.265 114.346 61.0568C114.276 60.8487 114.137 60.7099 113.929 60.6405C113.721 60.5711 113.42 60.5249 112.981 60.5017V60.1317C114.114 60.178 115.803 60.178 118.046 60.178C119.734 60.178 120.937 60.1548 121.631 60.1317C121.538 60.8487 121.515 61.4963 121.515 62.0745C121.515 62.537 121.538 62.9071 121.561 63.1846H121.145C121.053 62.1901 120.844 61.4963 120.521 61.1262C120.197 60.733 119.642 60.548 118.902 60.548H117.583C117.144 60.548 116.843 60.5711 116.635 60.6405C116.427 60.7099 116.311 60.8487 116.219 61.0568C116.15 61.265 116.103 61.5888 116.103 62.0513V65.4049H117.607C118 65.4049 118.277 65.3124 118.485 65.1042C118.694 64.8961 118.832 64.6879 118.902 64.4567C118.971 64.2254 119.041 63.9247 119.11 63.5547H119.526C119.48 63.971 119.48 64.4104 119.48 64.8961V65.5899C119.48 66.0525 119.526 66.7232 119.596 67.6021H119.179C119.11 67.0239 118.971 66.5613 118.763 66.2375C118.555 65.9137 118.185 65.7518 117.63 65.7518H116.126V69.1748C116.126 69.6373 116.173 69.9611 116.242 70.1693C116.311 70.3774 116.45 70.5162 116.658 70.5856C116.866 70.655 117.167 70.6781 117.607 70.6781H118.925C119.526 70.6781 120.012 70.5856 120.359 70.4006C120.706 70.2155 120.983 69.8917 121.145 69.4754C121.33 69.0591 121.446 68.4578 121.515 67.6715H121.932C121.885 67.9952 121.885 68.4347 121.885 68.9666C121.862 69.6142 121.908 70.3081 122.001 71.1175Z" fill="white"/>
<path d="M138.676 60.0391C138.976 60.1547 139.3 60.3166 139.624 60.5248C139.878 60.6867 140.087 60.7792 140.249 60.7792C140.364 60.7792 140.434 60.7098 140.503 60.5942C140.572 60.4785 140.619 60.2704 140.642 59.9928H141.058C140.989 60.6173 140.966 61.7274 140.966 63.3233H140.549C140.48 62.4675 140.202 61.7274 139.717 61.1261C139.231 60.5248 138.514 60.2241 137.589 60.2241C136.941 60.2241 136.432 60.386 136.016 60.7329C135.6 61.0799 135.392 61.4962 135.392 62.005C135.392 62.375 135.484 62.6988 135.669 62.9764C135.854 63.2539 136.085 63.4852 136.386 63.6933C136.687 63.9015 137.103 64.1328 137.635 64.4334L138.236 64.7572C138.976 65.1504 139.578 65.5204 140.04 65.8211C140.503 66.1449 140.85 66.4918 141.127 66.885C141.405 67.2782 141.544 67.7639 141.544 68.2958C141.544 69.2672 141.197 70.0304 140.48 70.5624C139.786 71.0943 138.884 71.3718 137.843 71.3718C137.265 71.3718 136.802 71.3025 136.432 71.1868C136.062 71.0712 135.715 70.9093 135.369 70.7011C135.114 70.5392 134.906 70.4467 134.744 70.4467C134.628 70.4467 134.559 70.5161 134.49 70.6317C134.42 70.7474 134.374 70.9555 134.351 71.2331H133.935C133.981 70.6317 134.004 69.3134 134.004 67.255H134.42C134.513 68.3652 134.813 69.2672 135.322 69.961C135.831 70.6549 136.641 71.0018 137.704 71.0018C138.306 71.0018 138.838 70.8399 139.277 70.493C139.717 70.1461 139.948 69.6372 139.948 68.9665C139.948 68.5734 139.832 68.2264 139.601 67.9026C139.37 67.602 139.069 67.3244 138.676 67.07C138.283 66.8387 137.751 66.5381 137.057 66.168C136.062 65.6592 135.322 65.1504 134.79 64.6416C134.281 64.1328 134.004 63.4852 134.004 62.6757C134.004 61.7737 134.328 61.103 134.998 60.5942C135.646 60.1085 136.456 59.8541 137.404 59.8541C137.959 59.8772 138.375 59.9234 138.676 60.0391Z" fill="white"/>
<path d="M61.4513 52.1061C61.0812 52.3605 60.7574 52.4762 60.4799 52.4762C60.1561 52.4762 59.948 52.3605 59.8323 52.1061C59.7167 51.8517 59.6704 51.4586 59.6704 50.8572V40.9122C59.6704 39.5707 59.5779 38.5068 59.3929 37.7436C59.2079 36.9572 58.8609 36.3097 58.3059 35.7777C57.7277 35.1995 56.9876 34.7832 56.1087 34.5288C55.2298 34.2744 54.1891 34.1588 53.0095 34.1588C51.8531 34.1588 50.8124 34.2744 49.841 34.4825C48.8696 34.6907 48.0601 35.0145 47.4125 35.3845C46.7418 35.8008 46.233 36.2403 45.8861 36.726C45.5623 37.2117 45.4004 37.7899 45.4004 38.4606C45.4004 39.2701 45.6317 39.9408 46.0942 40.4727C46.5568 41.0047 47.2044 41.2822 48.0601 41.2822C48.8696 41.2822 49.5403 41.0278 50.0954 40.5421C50.6505 40.0564 50.928 39.4088 50.928 38.5762C50.928 37.9286 50.743 37.3504 50.3729 36.8647C50.0029 36.379 49.4709 36.009 48.7771 35.7777C49.3784 35.1995 50.2804 34.8989 51.4368 34.8989C52.4313 34.8989 53.1714 35.1764 53.6571 35.7546C54.1428 36.3328 54.3741 37.1191 54.3741 38.1368V40.9815C54.3741 41.6291 54.0734 42.1611 53.449 42.5311C52.8245 42.9012 51.8531 43.3175 50.5117 43.78C49.2397 44.2195 48.1989 44.6358 47.3894 45.0289C46.5799 45.4221 45.8861 45.9772 45.3079 46.6942C44.7297 47.4111 44.4521 48.3131 44.4521 49.4233C44.4521 50.7416 44.8453 51.8055 45.6086 52.5918C46.3718 53.3782 47.5282 53.7945 49.1009 53.7945C51.46 53.7945 53.2408 52.8 54.4666 50.8341C54.4897 51.7361 54.7673 52.4531 55.2992 52.985C55.8312 53.5169 56.7794 53.7945 58.1208 53.7945C59.5548 53.7945 60.7806 53.4244 61.7982 52.7075L61.4513 52.1061ZM54.3972 49.9784C53.6802 50.9729 52.8708 51.4817 51.9225 51.4817C51.2518 51.4817 50.6967 51.2504 50.2804 50.7647C49.8641 50.279 49.656 49.562 49.656 48.5444C49.656 47.4111 49.9104 46.5323 50.3961 45.9078C50.8818 45.3065 51.5987 44.682 52.547 44.0807C53.4952 43.5025 54.1197 42.9705 54.4203 42.4849V49.9784H54.3972Z" fill="white"/>
<path d="M133.218 70.3312C132.94 70.6087 132.662 70.7244 132.431 70.7244C132.246 70.7244 132.107 70.6318 131.992 70.4699C131.876 70.2849 131.76 70.0074 131.668 69.568L131.275 67.9259C131.113 67.2783 130.858 66.8157 130.488 66.5382C130.118 66.2606 129.61 66.0525 128.962 65.96C128.8 65.9368 128.592 65.9137 128.338 65.8906C129.61 65.7287 130.535 65.3586 131.09 64.7804C131.645 64.2022 131.922 63.5547 131.922 62.8608C131.922 62.0513 131.552 61.4037 130.858 60.8949C130.142 60.3861 129.101 60.1317 127.759 60.1317C127.505 60.1317 127.251 60.1317 127.065 60.1548L125.215 60.178C124.244 60.178 123.527 60.1548 123.018 60.1317V60.5017C123.457 60.5249 123.758 60.5711 123.966 60.6405C124.174 60.7099 124.29 60.8487 124.383 61.0568C124.452 61.265 124.498 61.5888 124.498 62.0513V69.1979C124.498 69.6605 124.452 69.9843 124.383 70.1924C124.313 70.4006 124.174 70.5393 123.966 70.6087C123.758 70.6781 123.457 70.7244 123.018 70.7475V71.1175C123.527 71.0713 127.065 71.0713 127.621 71.1175V70.7475C127.181 70.7244 126.88 70.6781 126.672 70.6087C126.464 70.5393 126.349 70.4006 126.256 70.1924C126.187 69.9843 126.14 69.6605 126.14 69.1979V66.0294H127.181C127.829 66.0294 128.314 66.145 128.661 66.3763C128.985 66.6076 129.24 67.047 129.401 67.7408L129.956 70.0074C130.188 70.9325 130.812 71.3719 131.807 71.3719C132.223 71.3719 132.57 71.2794 132.871 71.1175C133.102 70.9788 133.287 70.8169 133.472 70.6087L133.218 70.3312ZM126.14 65.6824V62.0513C126.14 61.6119 126.163 61.2881 126.233 61.08C126.302 60.8718 126.395 60.7099 126.557 60.6174C126.719 60.5249 126.973 60.5017 127.297 60.5017C128.291 60.5017 129.008 60.7099 129.448 61.1493C129.887 61.5656 130.118 62.2132 130.118 63.0921C130.118 63.9247 129.933 64.5723 129.54 65.0117C129.147 65.4743 128.43 65.6824 127.366 65.6824H126.14Z" fill="white"/>
<path d="M91.1939 70.3311C90.9164 70.6086 90.6389 70.7474 90.4076 70.7474C90.2226 70.7474 90.0838 70.6549 89.9681 70.493C89.8525 70.308 89.7369 70.0304 89.6444 69.591L89.2512 67.9489C89.0893 67.3013 88.8349 66.8387 88.4648 66.5612C88.0948 66.2837 87.586 66.0755 86.9384 65.983C86.7765 65.9599 86.5683 65.9368 86.3139 65.9136C87.586 65.7517 88.5111 65.3817 89.0662 64.8035C89.6212 64.2253 89.8988 63.5777 89.8988 62.8838C89.8988 62.0744 89.5287 61.4268 88.8349 60.918C88.1179 60.4091 87.0771 60.1547 85.7357 60.1547C85.4813 60.1547 85.2269 60.1547 85.0419 60.1779L83.1916 60.201C82.2202 60.201 81.5033 60.1779 80.9945 60.1547V60.5248C81.4339 60.5479 81.7346 60.5942 81.9427 60.6636C82.1509 60.7329 82.2665 60.8717 82.359 61.0799C82.4284 61.288 82.4747 61.6118 82.4747 62.0744V69.2209C82.4747 69.6835 82.4284 70.0073 82.359 70.2154C82.2896 70.4236 82.1509 70.5624 81.9427 70.6318C81.7346 70.7011 80.3931 71.2331 79.7687 69.6141L75.5362 60.0622H75.2587L71.2575 69.1053C71.0494 69.5679 70.8412 69.961 70.6099 70.2386C70.3787 70.5161 70.1011 70.7011 69.7773 70.7936V71.1637C70.1011 71.1174 72.6221 71.1174 72.9921 71.1637V70.7936C72.5065 70.7474 72.1364 70.6318 71.9283 70.4699C71.697 70.2848 71.6045 70.0535 71.6045 69.7298C71.6045 69.4291 71.697 69.0359 71.9051 68.5734L72.5296 67.2088H76.9239L77.849 69.2672C78.0109 69.6372 78.1034 69.9148 78.1034 70.1229C78.1034 70.3542 77.9878 70.5161 77.7797 70.6086C77.5715 70.7011 77.2477 70.7705 76.7851 70.7936V71.1637C77.294 71.1174 85.065 71.1174 85.6201 71.1637V70.7936C85.1806 70.7705 84.88 70.7243 84.6718 70.6549C84.4637 70.5855 84.348 70.4467 84.2555 70.2386C84.1861 70.0304 84.1399 69.7066 84.1399 69.2441V66.0755H85.1806C85.8282 66.0755 86.3139 66.1912 86.6608 66.4224C86.9846 66.6537 87.239 67.0932 87.4009 67.787L87.956 70.0536C88.1873 70.9787 88.8117 71.4181 89.8062 71.4181C90.2226 71.4181 90.5695 71.3256 90.8701 71.1637C91.1014 71.0249 91.2864 70.863 91.4715 70.6318L91.1939 70.3311ZM72.6452 66.8156L74.7036 62.2363L76.7389 66.8156H72.6452ZM84.1399 65.6823V62.0512C84.1399 61.6118 84.163 61.288 84.2324 61.0799C84.3018 60.8717 84.3943 60.7098 84.5562 60.6173C84.7181 60.5248 84.9725 60.5017 85.2963 60.5017C86.2908 60.5017 87.0078 60.7098 87.4472 61.1492C87.8866 61.5655 88.1179 62.2131 88.1179 63.092C88.1179 63.9246 87.9329 64.5722 87.5397 65.0116C87.1465 65.4742 86.4296 65.6823 85.3657 65.6823H84.1399Z" fill="white"/>
</g>
<defs>
<clipPath id="clip0_1219_4508">
<rect width="160" height="96" fill="white"/>
</clipPath>
</defs>
</svg>
