<svg width="440" height="182" viewBox="0 0 440 182" fill="none" xmlns="http://www.w3.org/2000/svg">
<g opacity="0.75">
<path d="M124.909 60.2547C126.435 60.8825 127.927 61.7544 129.419 62.9054C129.835 63.2193 130.182 63.3937 130.46 63.3937C131.188 63.3937 131.674 62.2776 131.882 60.0803H133.131C132.992 62.5915 132.923 67.021 132.923 73.4037H131.674C131.362 70.6832 130.911 68.6254 130.356 67.1954C129.801 65.7654 128.864 64.5098 127.546 63.4635C126.644 62.5915 125.568 61.9288 124.354 61.4405C123.14 60.9871 121.891 60.743 120.572 60.743C116.895 60.743 114.154 62.5566 112.35 66.1839C110.546 69.8113 109.679 74.3106 109.679 79.7167C109.679 85.0879 110.616 89.5523 112.489 93.1447C114.363 96.7372 117.138 98.5509 120.815 98.5509C122.064 98.5509 123.278 98.3067 124.527 97.8533C125.742 97.3999 126.782 96.7372 127.615 95.8304C128.968 94.8189 129.905 93.5284 130.425 91.9589C130.945 90.4242 131.362 88.1572 131.674 85.1925H132.923C132.923 91.8543 132.992 96.4582 133.131 99.074H131.882C131.778 97.8882 131.605 97.0511 131.431 96.5628C131.223 96.0745 130.945 95.8304 130.598 95.8304C130.321 95.8304 129.939 95.9699 129.454 96.2838C127.823 97.4696 126.227 98.3416 124.735 98.9694C123.244 99.5623 121.44 99.8762 119.324 99.8762C115.438 99.8762 112.073 99.074 109.159 97.5045C106.245 95.935 103.99 93.633 102.394 90.6335C100.798 87.634 100 84.0764 100 79.9259C100 75.8801 100.833 72.3225 102.463 69.1835C104.094 66.0793 106.383 63.6378 109.332 61.9288C112.281 60.2198 115.611 59.3478 119.393 59.3478C121.509 59.313 123.382 59.6269 124.909 60.2547Z" fill="black"/>
<path d="M146.106 74.9388C147.737 71.5208 150.72 69.8117 155.022 69.8117C157.867 69.8117 159.879 70.5442 161.058 71.9742C161.683 72.6717 162.134 73.5786 162.411 74.6947C162.689 75.8108 162.828 77.2757 162.828 79.1242V93.9474C162.828 95.4472 163.071 96.4935 163.591 97.0516C164.111 97.6096 165.013 97.8886 166.332 97.8886V99.0396C162.515 98.9001 155.473 98.9001 151.969 99.0396V97.8886C153.079 97.8886 153.842 97.6096 154.259 97.0516C154.71 96.4935 154.918 95.4472 154.918 93.9474V76.8222C154.918 75.3225 154.675 74.1715 154.189 73.4042C153.704 72.6369 152.802 72.2532 151.518 72.2532C149.992 72.2532 148.708 72.8461 147.667 74.032C146.626 75.2178 146.106 76.7525 146.106 78.5661V93.9474C146.106 95.4472 146.314 96.4935 146.765 97.0516C147.216 97.6096 147.979 97.8886 149.055 97.8886V99.0396C145.551 98.9001 138.509 98.9001 134.692 99.0396V97.8886C135.976 97.8886 136.878 97.6096 137.398 97.0516C137.919 96.4935 138.196 95.4472 138.196 93.9474V62.592C138.196 60.9178 137.919 59.6622 137.398 58.8949C136.878 58.1276 135.976 57.7439 134.692 57.7439V56.5929C135.872 56.6976 136.982 56.7673 138.092 56.7673C141.284 56.7673 143.92 56.5232 146.106 56V74.9388Z" fill="black"/>
<path d="M238.038 97.0516C238.559 97.6097 239.461 97.8887 240.744 97.8887V99.0397C237.102 98.9002 230.233 98.9002 226.729 99.0397V97.8887C227.7 97.8887 228.394 97.6097 228.776 97.0516C229.157 96.4936 229.365 95.4472 229.365 93.9126V76.8223C229.365 75.2877 229.123 74.1367 228.672 73.3694C228.221 72.6021 227.353 72.2533 226.07 72.2533C224.717 72.2533 223.537 72.8113 222.531 73.9623C221.525 75.1133 220.935 76.5084 220.762 78.1477V79.1243V93.9475C220.762 95.4472 221.005 96.4936 221.456 97.0516C221.907 97.6097 222.739 97.8887 223.953 97.8887V99.0397C220.45 98.9002 213.754 98.9002 210.25 99.0397V97.8887C211.221 97.8887 211.915 97.6097 212.297 97.0516C212.679 96.4936 212.887 95.4472 212.887 93.9475V76.8223C212.887 75.2877 212.679 74.1367 212.297 73.3694C211.881 72.6021 211.117 72.2533 209.938 72.2533C208.481 72.2533 207.232 72.8811 206.191 74.1018C205.15 75.3225 204.63 76.8572 204.63 78.636V93.9475C204.63 95.4472 204.838 96.4936 205.22 97.0516C205.601 97.6097 206.295 97.8887 207.267 97.8887V99.0397C204.04 98.9002 197.171 98.9002 193.251 99.0397V97.8887C194.569 97.8887 195.471 97.6097 195.992 97.0516C196.512 96.4936 196.755 95.4472 196.755 93.9475V76.613C196.755 74.9389 196.512 73.6833 195.992 72.916C195.471 72.1486 194.569 71.765 193.251 71.765V70.614C194.431 70.7186 195.541 70.7884 196.651 70.7884C199.912 70.7884 202.583 70.5442 204.665 70.0211V74.9738C206.261 71.5557 209.105 69.8467 213.164 69.8467C215.94 69.8467 217.952 70.5791 219.201 72.0091C219.895 72.7416 220.346 73.8577 220.554 75.3225C221.49 73.3345 222.739 71.9394 224.266 71.1023C225.792 70.2652 227.596 69.8467 229.643 69.8467C232.418 69.8467 234.431 70.5791 235.679 72.0091C236.269 72.6718 236.686 73.5786 236.928 74.6947C237.171 75.8457 237.31 77.3106 237.31 79.1591V93.9823C237.241 95.4472 237.483 96.4936 238.038 97.0516Z" fill="black"/>
<path d="M266 73.4739C267.839 75.9154 268.741 79.4381 268.741 84.0769C268.741 89.483 267.561 93.4591 265.237 96.0052C262.913 98.5513 259.894 99.8418 256.182 99.8418C253.65 99.8418 251.603 99.214 250.042 97.9235C248.724 97.8189 247.405 97.9584 246.087 98.3769C244.769 98.7955 243.728 99.3186 242.965 99.9813L242.132 99.493C242.375 98.5862 242.514 97.5398 242.514 96.4237V62.592C242.514 60.9178 242.236 59.6622 241.716 58.8949C241.195 58.1276 240.293 57.7439 239.01 57.7439V56.5929C240.155 56.6976 241.265 56.7673 242.41 56.7673C245.601 56.7673 248.238 56.5232 250.423 56V75.0435C251.187 73.3693 252.297 72.0439 253.754 71.172C255.211 70.2652 256.911 69.8117 258.784 69.8117C261.768 69.8117 264.162 71.0325 266 73.4739ZM258.958 95.2728C259.929 93.0057 260.449 89.5179 260.449 84.8791C260.449 80.3449 260.033 77.1361 259.201 75.1481C258.368 73.1949 257.154 72.2183 255.593 72.2183C254.413 72.2183 253.338 72.6369 252.401 73.5088C251.43 74.3808 250.77 75.5318 250.458 76.9966V97.2259C251.672 98.2025 253.025 98.7257 254.517 98.7257C256.495 98.6908 257.986 97.5398 258.958 95.2728Z" fill="black"/>
<path d="M293.617 90.9128L294.588 91.2267C293.86 93.5984 292.541 95.6562 290.668 97.3304C288.795 99.0045 286.436 99.8416 283.626 99.8416C279.74 99.8416 276.687 98.586 274.397 96.1096C272.108 93.6333 270.963 89.9711 270.963 85.123C270.963 80.1703 272.177 76.3686 274.64 73.7528C277.103 71.1369 280.33 69.8115 284.389 69.8115C291.258 69.8115 294.692 73.8923 294.692 82.0537H279.289C279.254 82.6118 279.22 83.4837 279.22 84.6347C279.22 87.0413 279.567 89.0642 280.226 90.7035C280.885 92.3079 281.787 93.4938 282.862 94.2262C283.938 94.9587 285.083 95.3423 286.331 95.3423C289.384 95.3423 291.778 93.8426 293.617 90.9128ZM280.815 73.4388C279.948 75.0781 279.428 77.5893 279.185 81.0074H287.789C287.858 78.1125 287.58 75.7059 286.956 73.8225C286.332 71.9391 285.36 70.9974 284.077 70.9974C282.758 70.9974 281.683 71.7996 280.815 73.4388Z" fill="black"/>
<path d="M317.589 71.3108C318.422 72.2873 318.838 73.5081 318.838 74.9032C318.838 76.2635 318.457 77.3795 317.659 78.2515C316.861 79.1235 315.855 79.542 314.571 79.542C313.322 79.542 312.351 79.2281 311.622 78.5654C310.894 77.9376 310.512 77.0656 310.512 76.0193C310.512 74.2405 311.31 72.8105 312.906 71.7293C312.767 71.6944 312.524 71.6595 312.247 71.6595C311.865 71.6595 311.588 71.6944 311.38 71.7642C309.992 71.9734 308.812 72.8454 307.841 74.3103C306.87 75.7752 306.384 77.2749 306.384 78.8444V93.4584C306.384 95.1325 306.8 96.3184 307.633 96.9811C308.465 97.6437 309.749 97.9576 311.553 97.9576V99.1086C311.033 99.1086 310.616 99.0737 310.304 99.0389C306.592 98.9342 299.619 98.9342 296.115 99.0389C295.837 99.0737 295.456 99.1086 295.005 99.1086V97.9576C296.323 97.9576 297.225 97.6786 297.746 97.1206C298.266 96.5625 298.509 95.5162 298.509 94.0164V76.6122C298.509 74.9381 298.266 73.6825 297.746 72.9152C297.225 72.1478 296.323 71.7642 295.005 71.7642V70.6132C296.184 70.7178 297.295 70.7876 298.405 70.7876C301.666 70.7876 304.337 70.5434 306.419 70.0203V75.1474C307.112 73.5778 308.119 72.2873 309.437 71.3108C310.755 70.3342 312.247 69.8459 313.877 69.8459C315.508 69.811 316.757 70.3342 317.589 71.3108Z" fill="black"/>
<path d="M332.749 70.3349C333.929 70.6837 334.796 71.0673 335.42 71.5208C335.802 71.7649 336.114 71.9044 336.392 71.9044C336.704 71.9044 337.016 71.73 337.224 71.3812C337.467 71.0325 337.606 70.5442 337.675 69.8815H338.82C338.681 71.7649 338.612 74.9737 338.612 79.5776H337.467C337.155 77.171 336.426 75.1132 335.316 73.4739C334.206 71.8347 332.576 71.0325 330.459 71.0325C329.349 71.0325 328.447 71.3464 327.753 71.9742C327.025 72.602 326.678 73.4739 326.678 74.5552C326.678 75.8108 327.094 76.892 327.927 77.7639C328.76 78.6708 330.078 79.752 331.882 81.0425L333.478 82.1935C335.698 83.8676 337.363 85.4023 338.404 86.7276C339.479 88.053 340 89.6923 340 91.6803C340 93.2847 339.549 94.7147 338.612 95.9703C337.675 97.2259 336.427 98.1677 334.865 98.8303C333.304 99.493 331.57 99.8069 329.662 99.8069C327.649 99.8069 325.949 99.4233 324.527 98.6559C323.348 98.063 322.515 97.6794 321.995 97.505C321.613 97.4003 321.301 97.505 321.023 97.8537C320.746 98.2025 320.538 98.7257 320.399 99.4233H319.254C319.393 97.3306 319.462 93.6684 319.462 88.4018H320.607C321.335 95.1681 323.799 98.5513 327.996 98.5513C329.072 98.5513 329.974 98.2374 330.702 97.5747C331.466 96.9469 331.812 95.9355 331.812 94.645C331.812 93.6335 331.57 92.6918 331.119 91.8896C330.668 91.0874 330.078 90.3549 329.384 89.7271C328.69 89.0993 327.649 88.2274 326.262 87.1462C324.631 85.8208 323.382 84.7744 322.515 83.9374C321.648 83.1352 320.919 82.1586 320.329 81.0774C319.74 79.9961 319.427 78.7405 319.427 77.3803C319.427 75.0435 320.329 73.16 322.168 71.7998C324.007 70.4395 326.227 69.7769 328.864 69.7769C330.321 69.8117 331.57 69.9861 332.749 70.3349Z" fill="black"/>
<path d="M165.463 109.05C164.283 109.05 163.347 109.015 162.687 108.98V109.538C163.416 109.573 163.936 109.677 164.283 109.817C164.63 109.956 164.873 110.235 164.977 110.549C165.081 110.898 165.151 111.421 165.151 112.119V121.048L156.512 108.945C155.818 109.015 154.986 109.015 154.014 109.015C152.939 109.015 152.106 108.98 151.482 108.945V109.503C152.141 109.538 152.592 109.608 152.904 109.712C153.217 109.817 153.39 110.026 153.529 110.34C153.633 110.654 153.702 111.142 153.702 111.84V122.373C153.702 123.071 153.633 123.594 153.529 123.943C153.425 124.291 153.217 124.535 152.904 124.71C152.592 124.849 150.753 125.756 149.643 123.245L143.295 108.84H142.878L136.877 122.478C136.564 123.175 136.252 123.768 135.905 124.187C135.558 124.605 135.142 124.884 134.656 125.024V125.582C135.142 125.512 138.923 125.512 139.478 125.582V125.024C138.75 124.954 138.195 124.78 137.883 124.535C137.536 124.256 137.397 123.908 137.397 123.419C137.397 122.966 137.536 122.373 137.848 121.675L138.785 119.618H145.376L146.764 122.722C147.007 123.28 147.145 123.698 147.145 124.012C147.145 124.361 146.972 124.605 146.66 124.745C146.347 124.884 145.862 124.989 145.168 125.024V125.582C145.931 125.512 156.165 125.512 156.79 125.582V125.024C156.061 124.989 155.541 124.884 155.194 124.745C154.847 124.605 154.604 124.326 154.5 124.012C154.396 123.664 154.327 123.14 154.327 122.443V110.654L165.151 125.756H165.775V112.154C165.775 111.456 165.844 110.933 165.949 110.584C166.053 110.235 166.261 109.991 166.573 109.817C166.885 109.677 167.336 109.573 167.995 109.538V108.98C167.406 109.015 166.538 109.05 165.463 109.05ZM138.993 119.06L142.08 112.154L145.133 119.06H138.993Z" fill="black"/>
<path d="M182.601 111.038C184.023 112.398 184.717 114.421 184.717 117.037C184.717 118.746 184.37 120.246 183.676 121.536C182.983 122.827 181.976 123.803 180.693 124.501C179.375 125.198 177.813 125.547 175.975 125.547L174.414 125.512C173.407 125.477 172.644 125.442 172.193 125.442C170.701 125.442 169.591 125.477 168.828 125.512V124.954C169.487 124.919 169.938 124.849 170.251 124.745C170.563 124.64 170.736 124.431 170.875 124.117C170.979 123.803 171.048 123.315 171.048 122.617V111.84C171.048 111.142 170.979 110.654 170.875 110.34C170.771 110.026 170.563 109.817 170.251 109.712C169.938 109.608 169.487 109.538 168.828 109.503V108.945C169.453 109.015 170.32 109.015 171.465 109.015L173.754 108.98C174.969 108.945 175.801 108.91 176.218 108.91C179.062 108.98 181.179 109.677 182.601 111.038ZM174.275 109.643C173.997 109.782 173.789 109.991 173.685 110.34C173.581 110.654 173.512 111.142 173.512 111.805V122.687C173.512 123.35 173.581 123.838 173.685 124.152C173.789 124.466 173.997 124.71 174.275 124.849C174.552 124.989 174.969 125.024 175.558 125.024C177.189 125.024 178.507 124.745 179.444 124.152C180.381 123.559 181.04 122.687 181.421 121.536C181.803 120.385 181.976 118.92 181.976 117.107C181.976 114.456 181.491 112.503 180.519 111.282C179.548 110.061 177.883 109.433 175.524 109.433C175.003 109.468 174.587 109.538 174.275 109.643Z" fill="black"/>
<path d="M197.866 117.734V122.652C197.866 123.35 197.935 123.838 198.074 124.152C198.213 124.466 198.455 124.675 198.837 124.78C199.184 124.884 199.774 124.954 200.606 124.989V125.547C199.67 125.477 193.911 125.477 193.147 125.547V124.989C193.807 124.954 194.258 124.884 194.57 124.78C194.882 124.675 195.056 124.466 195.194 124.152C195.298 123.838 195.368 123.35 195.368 122.652V109.154C195.368 108.457 195.298 107.968 195.194 107.654C195.09 107.34 194.882 107.131 194.57 107.027C194.258 106.922 193.807 106.852 193.147 106.817V106.259C193.911 106.329 195.021 106.329 196.443 106.329L199.357 106.294C199.704 106.259 200.086 106.259 200.537 106.259C202.653 106.259 204.284 106.748 205.394 107.724C206.504 108.701 207.059 109.991 207.059 111.631C207.059 112.642 206.851 113.584 206.4 114.491C205.949 115.397 205.22 116.165 204.145 116.792C203.104 117.42 201.682 117.734 199.947 117.734H197.866ZM198.629 106.992C198.351 107.131 198.143 107.34 198.039 107.689C197.935 108.003 197.866 108.491 197.866 109.154V117.211H199.67C201.439 117.211 202.653 116.723 203.347 115.781C204.041 114.839 204.353 113.549 204.353 111.944C204.353 110.166 204.006 108.875 203.312 108.038C202.618 107.201 201.474 106.782 199.843 106.782C199.323 106.782 198.906 106.852 198.629 106.992Z" fill="black"/>
<path d="M251.327 112.189C251.327 113.131 251.362 113.863 251.397 114.421H250.772C250.668 113.166 250.495 112.189 250.252 111.492C250.009 110.829 249.627 110.341 249.107 110.027C248.587 109.713 247.823 109.573 246.852 109.573H245.118V122.339C245.118 123.106 245.187 123.664 245.326 124.013C245.464 124.362 245.707 124.606 246.089 124.711C246.436 124.85 247.026 124.92 247.858 124.955V125.513C246.922 125.443 240.746 125.443 239.879 125.513V124.955C240.677 124.92 241.267 124.85 241.648 124.711C241.995 124.571 242.273 124.362 242.412 124.013C242.55 123.664 242.62 123.106 242.62 122.339V109.573H240.885C239.914 109.573 239.15 109.713 238.63 110.027C238.11 110.341 237.728 110.829 237.485 111.492C237.242 112.154 237.069 113.131 236.965 114.421H236.34C236.41 113.829 236.41 113.096 236.41 112.189C236.41 111.248 236.34 110.166 236.236 108.98C237.728 109.05 240.295 109.05 243.869 109.05C247.442 109.05 249.974 109.015 251.501 108.98C251.397 110.166 251.327 111.248 251.327 112.189Z" fill="black"/>
<path d="M268.672 109.538C268.048 109.573 267.562 109.678 267.25 109.817C266.938 109.957 266.729 110.236 266.625 110.585C266.521 110.934 266.452 111.457 266.452 112.154V125.687H265.827L255.003 110.585V122.374C255.003 123.071 255.073 123.594 255.177 123.943C255.281 124.292 255.524 124.536 255.871 124.676C256.218 124.815 256.738 124.92 257.467 124.955V125.513C256.807 125.443 252.783 125.443 252.193 125.513V124.955C252.818 124.92 253.303 124.815 253.616 124.676C253.928 124.536 254.136 124.257 254.24 123.908C254.344 123.559 254.414 123.036 254.414 122.339V111.806C254.414 111.108 254.344 110.62 254.24 110.306C254.136 109.992 253.928 109.783 253.616 109.678C253.303 109.573 252.853 109.504 252.193 109.469V108.911C252.783 108.98 253.616 108.98 254.726 108.98C255.697 108.98 256.53 108.946 257.224 108.911L265.862 121.013V112.154C265.862 111.457 265.793 110.934 265.689 110.585C265.585 110.236 265.342 109.992 264.995 109.852C264.648 109.713 264.127 109.608 263.399 109.573V109.015C264.058 109.085 264.96 109.085 266.174 109.085C267.25 109.085 268.082 109.05 268.707 109.015V109.538H268.672Z" fill="black"/>
<path d="M283 125.548C281.82 125.478 271.204 125.478 269.47 125.548V124.99C270.129 124.955 270.58 124.885 270.892 124.78C271.204 124.676 271.378 124.466 271.517 124.152C271.621 123.839 271.69 123.35 271.69 122.653V111.875C271.69 111.178 271.621 110.689 271.517 110.376C271.412 110.062 271.204 109.852 270.892 109.748C270.58 109.643 270.129 109.573 269.47 109.539V108.98C271.17 109.05 273.702 109.05 277.067 109.05C279.6 109.05 281.404 109.015 282.445 108.98C282.306 110.062 282.271 111.038 282.271 111.91C282.271 112.608 282.306 113.166 282.34 113.584H281.716C281.577 112.085 281.265 111.038 280.779 110.48C280.294 109.887 279.461 109.608 278.351 109.608H276.373C275.714 109.608 275.263 109.643 274.951 109.748C274.639 109.852 274.465 110.062 274.327 110.376C274.223 110.689 274.153 111.178 274.153 111.875V116.933H276.408C276.998 116.933 277.414 116.793 277.726 116.479C278.039 116.165 278.247 115.851 278.351 115.503C278.455 115.154 278.559 114.7 278.663 114.142H279.288C279.218 114.77 279.218 115.433 279.218 116.165V117.212C279.218 117.909 279.288 118.921 279.392 120.246H278.767C278.663 119.374 278.455 118.677 278.143 118.188C277.831 117.7 277.275 117.456 276.443 117.456H274.188V122.618C274.188 123.315 274.257 123.804 274.361 124.118C274.465 124.431 274.674 124.641 274.986 124.745C275.298 124.85 275.749 124.885 276.408 124.885H278.386C279.288 124.885 280.016 124.745 280.537 124.466C281.057 124.187 281.473 123.699 281.716 123.071C281.994 122.443 282.167 121.537 282.271 120.351H282.896C282.826 120.839 282.826 121.502 282.826 122.304C282.791 123.281 282.861 124.327 283 125.548Z" fill="black"/>
<path d="M308.013 108.841C308.464 109.015 308.95 109.259 309.436 109.573C309.817 109.817 310.129 109.957 310.372 109.957C310.546 109.957 310.65 109.852 310.754 109.678C310.858 109.503 310.927 109.189 310.962 108.771H311.587C311.482 109.713 311.448 111.387 311.448 113.793H310.823C310.719 112.503 310.303 111.387 309.574 110.48C308.846 109.573 307.77 109.12 306.383 109.12C305.411 109.12 304.648 109.364 304.024 109.887C303.399 110.41 303.087 111.038 303.087 111.805C303.087 112.363 303.226 112.852 303.503 113.27C303.781 113.689 304.128 114.037 304.579 114.351C305.03 114.665 305.654 115.014 306.452 115.467L307.354 115.956C308.464 116.549 309.366 117.107 310.06 117.56C310.754 118.048 311.274 118.572 311.691 119.164C312.107 119.757 312.315 120.49 312.315 121.292C312.315 122.757 311.795 123.908 310.719 124.71C309.678 125.512 308.325 125.931 306.764 125.931C305.897 125.931 305.203 125.826 304.648 125.652C304.093 125.477 303.573 125.233 303.052 124.919C302.671 124.675 302.358 124.536 302.116 124.536C301.942 124.536 301.838 124.64 301.734 124.815C301.63 124.989 301.561 125.303 301.526 125.722H300.901C300.971 124.815 301.005 122.827 301.005 119.723H301.63C301.769 121.397 302.22 122.757 302.983 123.803C303.746 124.85 304.96 125.373 306.556 125.373C307.458 125.373 308.256 125.129 308.915 124.605C309.574 124.082 309.921 123.315 309.921 122.304C309.921 121.711 309.748 121.187 309.401 120.699C309.054 120.246 308.603 119.827 308.013 119.443C307.423 119.095 306.626 118.641 305.585 118.083C304.093 117.316 302.983 116.549 302.185 115.781C301.422 115.014 301.005 114.037 301.005 112.817C301.005 111.456 301.491 110.445 302.497 109.678C303.469 108.945 304.683 108.562 306.105 108.562C306.938 108.596 307.562 108.666 308.013 108.841Z" fill="black"/>
<path d="M192.177 96.8769C191.622 97.2606 191.137 97.435 190.72 97.435C190.235 97.435 189.922 97.2606 189.749 96.8769C189.576 96.4933 189.506 95.9004 189.506 94.9935V79.9959C189.506 77.973 189.367 76.3686 189.09 75.2176C188.812 74.0318 188.292 73.0552 187.459 72.253C186.592 71.381 185.482 70.7532 184.164 70.3696C182.845 69.9859 181.284 69.8115 179.515 69.8115C177.78 69.8115 176.219 69.9859 174.762 70.2998C173.305 70.6137 172.091 71.102 171.119 71.6601C170.113 72.2879 169.35 72.9506 168.83 73.683C168.344 74.4154 168.101 75.2874 168.101 76.2989C168.101 77.5196 168.448 78.5311 169.142 79.3333C169.836 80.1354 170.807 80.554 172.091 80.554C173.305 80.554 174.311 80.1703 175.144 79.4379C175.976 78.7054 176.393 77.7289 176.393 76.4732C176.393 75.4967 176.115 74.6247 175.56 73.8923C175.005 73.1598 174.207 72.6018 173.166 72.253C174.068 71.381 175.421 70.9276 177.156 70.9276C178.647 70.9276 179.758 71.3462 180.486 72.2181C181.215 73.0901 181.562 74.2759 181.562 75.8106V80.1006C181.562 81.0772 181.111 81.8794 180.174 82.4374C179.237 82.9955 177.78 83.6233 175.768 84.3208C173.86 84.9835 172.299 85.6113 171.085 86.2042C169.87 86.7972 168.83 87.6342 167.962 88.7155C167.095 89.7967 166.679 91.1569 166.679 92.8311C166.679 94.8191 167.268 96.4235 168.413 97.6094C169.558 98.7952 171.293 99.4231 173.652 99.4231C177.19 99.4231 179.862 97.9233 181.7 94.9587C181.735 96.3189 182.151 97.4001 182.949 98.2023C183.747 99.0045 185.17 99.4231 187.182 99.4231C189.333 99.4231 191.171 98.865 192.698 97.7838L192.177 96.8769ZM181.596 93.6682C180.521 95.1679 179.307 95.9352 177.884 95.9352C176.878 95.9352 176.046 95.5865 175.421 94.854C174.797 94.1216 174.484 93.0404 174.484 91.5057C174.484 89.7967 174.866 88.4713 175.595 87.5296C176.323 86.6228 177.399 85.6811 178.821 84.7742C180.243 83.9023 181.18 83.1001 181.631 82.3676V93.6682H181.596Z" fill="black"/>
<path d="M299.827 124.362C299.41 124.78 298.994 124.955 298.647 124.955C298.369 124.955 298.161 124.815 297.988 124.571C297.814 124.292 297.641 123.873 297.502 123.211L296.912 120.734C296.67 119.758 296.288 119.06 295.733 118.642C295.178 118.223 294.415 117.909 293.443 117.77C293.2 117.735 292.888 117.7 292.507 117.665C294.415 117.421 295.802 116.863 296.635 115.991C297.467 115.119 297.884 114.142 297.884 113.096C297.884 111.875 297.329 110.899 296.288 110.131C295.213 109.364 293.651 108.98 291.639 108.98C291.258 108.98 290.876 108.98 290.598 109.015L287.823 109.05C286.366 109.05 285.291 109.015 284.527 108.98V109.539C285.186 109.573 285.637 109.643 285.95 109.748C286.262 109.852 286.435 110.062 286.574 110.376C286.678 110.689 286.748 111.178 286.748 111.875V122.653C286.748 123.35 286.678 123.839 286.574 124.152C286.47 124.466 286.262 124.676 285.95 124.78C285.637 124.885 285.186 124.955 284.527 124.99V125.548C285.291 125.478 290.598 125.478 291.431 125.548V124.99C290.772 124.955 290.321 124.885 290.009 124.78C289.696 124.676 289.523 124.466 289.384 124.152C289.28 123.839 289.211 123.35 289.211 122.653V117.874H290.772C291.743 117.874 292.472 118.049 292.992 118.398C293.478 118.746 293.86 119.409 294.102 120.455L294.935 123.873C295.282 125.269 296.219 125.931 297.71 125.931C298.335 125.931 298.855 125.792 299.306 125.548C299.653 125.338 299.931 125.094 300.208 124.78L299.827 124.362ZM289.211 117.351V111.875C289.211 111.213 289.245 110.724 289.35 110.41C289.454 110.097 289.592 109.852 289.835 109.713C290.078 109.573 290.46 109.539 290.945 109.539C292.437 109.539 293.513 109.852 294.172 110.515C294.831 111.143 295.178 112.12 295.178 113.445C295.178 114.7 294.9 115.677 294.311 116.34C293.721 117.037 292.645 117.351 291.049 117.351H289.211Z" fill="black"/>
<path d="M236.791 124.361C236.375 124.779 235.958 124.989 235.611 124.989C235.334 124.989 235.126 124.849 234.952 124.605C234.779 124.326 234.605 123.907 234.467 123.245L233.877 120.768C233.634 119.792 233.252 119.094 232.697 118.676C232.142 118.257 231.379 117.943 230.408 117.804C230.165 117.769 229.852 117.734 229.471 117.699C231.379 117.455 232.767 116.897 233.599 116.025C234.432 115.153 234.848 114.176 234.848 113.13C234.848 111.909 234.293 110.933 233.252 110.165C232.177 109.398 230.616 109.015 228.604 109.015C228.222 109.015 227.84 109.015 227.563 109.049L224.787 109.084C223.33 109.084 222.255 109.049 221.492 109.015V109.573C222.151 109.607 222.602 109.677 222.914 109.782C223.226 109.886 223.4 110.096 223.539 110.41C223.643 110.724 223.712 111.212 223.712 111.909V122.687C223.712 123.384 223.643 123.873 223.539 124.186C223.434 124.5 223.226 124.71 222.914 124.814C222.602 124.919 220.59 125.721 219.653 123.28L213.304 108.875H212.888L206.886 122.512C206.574 123.21 206.262 123.803 205.915 124.221C205.568 124.64 205.152 124.919 204.666 125.058V125.617C205.152 125.547 208.933 125.547 209.488 125.617V125.058C208.76 124.989 208.205 124.814 207.892 124.57C207.545 124.291 207.407 123.942 207.407 123.454C207.407 123.001 207.545 122.408 207.858 121.71L208.794 119.652H215.386L216.774 122.756C217.016 123.315 217.155 123.733 217.155 124.047C217.155 124.396 216.982 124.64 216.669 124.779C216.357 124.919 215.872 125.024 215.178 125.058V125.617C215.941 125.547 227.597 125.547 228.43 125.617V125.058C227.771 125.024 227.32 124.954 227.008 124.849C226.696 124.745 226.522 124.535 226.383 124.221C226.279 123.907 226.21 123.419 226.21 122.722V117.943H227.771C228.742 117.943 229.471 118.118 229.991 118.466C230.477 118.815 230.859 119.478 231.101 120.524L231.934 123.942C232.281 125.337 233.218 126 234.709 126C235.334 126 235.854 125.861 236.305 125.617C236.652 125.407 236.93 125.163 237.207 124.814L236.791 124.361ZM208.968 119.059L212.055 112.154L215.108 119.059H208.968ZM226.21 117.35V111.875C226.21 111.212 226.245 110.724 226.349 110.41C226.453 110.096 226.591 109.852 226.834 109.712C227.077 109.573 227.459 109.538 227.944 109.538C229.436 109.538 230.512 109.852 231.171 110.514C231.83 111.142 232.177 112.119 232.177 113.444C232.177 114.7 231.899 115.676 231.31 116.339C230.72 117.036 229.644 117.35 228.048 117.35H226.21Z" fill="black"/>
</g>
</svg>
