<svg width="440" height="182" viewBox="0 0 440 182" fill="none" xmlns="http://www.w3.org/2000/svg">
<g opacity="0.75">
<path d="M170.054 29.2505V65.4756H162.695V35.0973H148.346V65.4756H140.987V29.2505H170.054Z" fill="black"/>
<path d="M190.389 52.563H181.289V46.7411H190.389C191.796 46.7411 192.94 46.5089 193.823 46.0444C194.706 45.5634 195.352 44.9 195.761 44.0541C196.17 43.2081 196.374 42.2544 196.374 41.1929C196.374 40.1147 196.17 39.1113 195.761 38.1824C195.352 37.2536 194.706 36.5072 193.823 35.9432C192.94 35.3793 191.796 35.0973 190.389 35.0973H183.84V65.4756H176.481V29.2505H190.389C193.186 29.2505 195.581 29.7647 197.576 30.7931C199.588 31.8049 201.125 33.2064 202.188 34.9978C203.251 36.7891 203.782 38.8376 203.782 41.1431C203.782 43.4818 203.251 45.5054 202.188 47.2138C201.125 48.9222 199.588 50.2409 197.576 51.1697C195.581 52.0986 193.186 52.563 190.389 52.563Z" fill="black"/>
<path d="M219.309 35.4456L209.596 65.4756H201.771L215.041 29.2505H220.021L219.309 35.4456ZM227.38 65.4756L217.641 35.4456L216.856 29.2505H221.885L235.229 65.4756H227.38ZM226.938 51.9907V57.8375H208.075V51.9907H226.938Z" fill="black"/>
<path d="M252.522 49.5774H243.348L243.299 44.4521H251.001C252.359 44.4521 253.471 44.278 254.337 43.9297C255.204 43.5648 255.85 43.0423 256.275 42.3622C256.717 41.6656 256.938 40.8197 256.938 39.8245C256.938 38.6966 256.725 37.7843 256.3 37.0877C255.891 36.3911 255.245 35.8852 254.362 35.57C253.495 35.2549 252.375 35.0973 251.001 35.0973H245.899V65.4756H238.54V29.2505H251.001C253.078 29.2505 254.934 29.4496 256.57 29.8476C258.221 30.2457 259.619 30.8511 260.764 31.6639C261.909 32.4766 262.784 33.505 263.389 34.749C263.994 35.9764 264.296 37.436 264.296 39.1278C264.296 40.6206 263.961 41.9973 263.291 43.2579C262.637 44.5185 261.598 45.5469 260.175 46.343C258.769 47.1392 256.929 47.5787 254.656 47.6616L252.522 49.5774ZM252.203 65.4756H241.337L244.207 59.6537H252.203C253.495 59.6537 254.55 59.4464 255.368 59.0317C256.185 58.6005 256.79 58.02 257.183 57.2902C257.575 56.5603 257.772 55.7227 257.772 54.7773C257.772 53.7157 257.592 52.7952 257.232 52.0156C256.889 51.236 256.333 50.6389 255.564 50.2243C254.795 49.793 253.781 49.5774 252.522 49.5774H245.433L245.482 44.4521H254.313L256.005 46.4674C258.18 46.4342 259.93 46.824 261.255 47.6368C262.596 48.4329 263.569 49.4696 264.174 50.7467C264.795 52.0239 265.106 53.3923 265.106 54.8519C265.106 57.174 264.607 59.1313 263.61 60.7236C262.612 62.2993 261.148 63.4852 259.219 64.2814C257.306 65.0776 254.967 65.4756 252.203 65.4756Z" fill="black"/>
<path d="M299.962 46.5172V48.2339C299.962 50.9873 299.594 53.4587 298.858 55.6481C298.123 57.8375 297.084 59.7035 295.743 61.2461C294.402 62.772 292.8 63.9414 290.935 64.7541C289.088 65.5669 287.035 65.9732 284.779 65.9732C282.538 65.9732 280.486 65.5669 278.622 64.7541C276.774 63.9414 275.171 62.772 273.814 61.2461C272.457 59.7035 271.402 57.8375 270.65 55.6481C269.914 53.4587 269.546 50.9873 269.546 48.2339V46.5172C269.546 43.7472 269.914 41.2758 270.65 39.103C271.385 36.9135 272.424 35.0475 273.765 33.505C275.122 31.9624 276.725 30.7848 278.573 29.972C280.437 29.1593 282.489 28.7529 284.729 28.7529C286.986 28.7529 289.038 29.1593 290.886 29.972C292.751 30.7848 294.353 31.9624 295.694 33.505C297.051 35.0475 298.098 36.9135 298.834 39.103C299.586 41.2758 299.962 43.7472 299.962 46.5172ZM292.53 48.2339V46.4674C292.53 44.5434 292.358 42.8515 292.015 41.3919C291.671 39.9323 291.164 38.7049 290.494 37.7097C289.823 36.7145 289.006 35.9681 288.041 35.4705C287.076 34.9563 285.972 34.6992 284.729 34.6992C283.487 34.6992 282.383 34.9563 281.418 35.4705C280.469 35.9681 279.66 36.7145 278.99 37.7097C278.335 38.7049 277.837 39.9323 277.493 41.3919C277.15 42.8515 276.978 44.5434 276.978 46.4674V48.2339C276.978 50.1413 277.15 51.8332 277.493 53.3094C277.837 54.769 278.344 56.0047 279.014 57.0165C279.685 58.0117 280.502 58.7664 281.467 59.2805C282.432 59.7947 283.536 60.0518 284.779 60.0518C286.021 60.0518 287.125 59.7947 288.09 59.2805C289.055 58.7664 289.864 58.0117 290.518 57.0165C291.173 56.0047 291.671 54.769 292.015 53.3094C292.358 51.8332 292.53 50.1413 292.53 48.2339Z" fill="black"/>
<path d="M137.382 130.031H154.055C154.18 132.706 155.028 134.84 156.598 136.432C158.105 138.088 160.24 138.916 163.003 138.916C165.577 138.916 167.713 137.993 169.408 136.146C170.664 134.681 171.292 132.929 171.292 130.891C171.292 128.535 170.476 126.656 168.843 125.254C167.399 124.044 165.389 123.439 162.814 123.439C161.747 123.439 160.836 123.567 160.083 123.821V112.643C162.846 113.025 165.075 112.484 166.771 111.019C168.152 109.809 168.843 108.312 168.843 106.529C168.843 104.618 168.278 103.089 167.147 101.943C166.017 100.796 164.479 100.223 162.532 100.223C160.585 100.223 159.078 100.765 158.011 101.847C156.566 103.185 155.844 105.064 155.844 107.484H140.679C140.993 101.561 143.034 96.6883 146.802 92.8668C150.695 88.7267 156.221 86.6567 163.38 86.6567C170.036 86.6567 175.248 88.5357 179.016 92.2935C182.407 95.7329 184.102 99.8411 184.102 104.618C184.102 107.548 183.474 110.159 182.218 112.452C181.025 114.681 179.424 116.306 177.414 117.325C180.491 118.471 182.972 120.414 184.856 123.153C186.614 125.764 187.493 128.885 187.493 132.515C187.493 138.057 185.641 142.706 181.936 146.464C177.477 150.986 171.229 153.247 163.191 153.247C155.844 153.247 149.847 151.05 145.2 146.655C140.616 142.388 138.01 136.846 137.382 130.031Z" fill="black"/>
<path d="M224.474 103.472C223.03 102.134 221.366 101.465 219.482 101.465C217.598 101.465 215.934 102.134 214.49 103.472C212.857 104.873 211.538 107.229 210.534 110.541C209.529 113.79 209.026 116.974 209.026 120.095C209.026 122.961 209.497 126.082 210.439 129.458C211.444 132.77 212.794 135.19 214.49 136.719C215.934 138.057 217.598 138.725 219.482 138.725C221.366 138.725 223.03 138.057 224.474 136.719C226.107 135.254 227.426 132.897 228.43 129.649C229.435 126.337 229.937 123.184 229.937 120.191C229.937 117.197 229.404 114.013 228.336 110.637C227.331 107.261 226.044 104.873 224.474 103.472ZM246.139 120C246.139 131.146 243.03 139.808 236.813 145.986C231.978 150.827 226.201 153.247 219.482 153.247C212.763 153.247 206.986 150.827 202.15 145.986C195.934 139.808 192.825 131.146 192.825 120C192.825 108.79 195.934 100.096 202.15 93.9177C206.986 89.0771 212.763 86.6567 219.482 86.6567C226.201 86.6567 231.978 89.0771 236.813 93.9177C243.03 100.096 246.139 108.79 246.139 120Z" fill="black"/>
<path d="M280.953 103.472C279.509 102.134 277.845 101.465 275.961 101.465C274.077 101.465 272.413 102.134 270.969 103.472C269.336 104.873 268.017 107.229 267.013 110.541C266.008 113.79 265.506 116.974 265.506 120.095C265.506 122.961 265.977 126.082 266.918 129.458C267.923 132.77 269.273 135.19 270.969 136.719C272.413 138.057 274.077 138.725 275.961 138.725C277.845 138.725 279.509 138.057 280.953 136.719C282.586 135.254 283.905 132.897 284.909 129.649C285.914 126.337 286.416 123.184 286.416 120.191C286.416 117.197 285.883 114.013 284.815 110.637C283.81 107.261 282.523 104.873 280.953 103.472ZM302.618 120C302.618 131.146 299.509 139.808 293.293 145.986C288.457 150.827 282.68 153.247 275.961 153.247C269.242 153.247 263.465 150.827 258.629 145.986C252.413 139.808 249.304 131.146 249.304 120C249.304 108.79 252.413 100.096 258.629 93.9177C263.465 89.0771 269.242 86.6567 275.961 86.6567C282.68 86.6567 288.457 89.0771 293.293 93.9177C299.509 100.096 302.618 108.79 302.618 120Z" fill="black"/>
</g>
</svg>
