<svg viewBox="0 0 123 102" width="123" height="102" fill="#F2F3F8" xmlns="http://www.w3.org/2000/svg"><path d="M2.8 96c10.667-7.2 18.666-15.067 24-23.6 5.333-8.8 8-18.933 8-30.4l-12 4c-6.134 0-11.334-2.133-15.6-6.4C2.933 35.333.8 30.133.8 24c0-6.933 2.266-12.667 6.8-17.2C12.133 2.267 17.866 0 24.8 0c8 0 14.266 2.533 18.8 7.6 4.8 4.8 7.2 11.6 7.2 20.4 0 32.8-14.667 57.467-44 74l-4-6Zm72 0c10.666-7.2 18.666-15.067 24-23.6 5.333-8.8 8-18.933 8-30.4l-12 4c-6.133 0-11.334-2.133-15.6-6.4-4.267-4.267-6.4-9.467-6.4-15.6 0-6.933 2.267-12.667 6.8-17.2C84.133 2.267 89.867 0 96.8 0c8 0 14.266 2.533 18.8 7.6 4.8 4.8 7.2 11.6 7.2 20.4 0 32.8-14.667 57.467-44 74l-4-6Z" /></svg>