<svg width="0" height="0" class="hidden">
	<symbol id="arr-down" viewBox="0 0 11 9"  xmlns="http://www.w3.org/2000/svg"><path d="M5.577 8.9.102 3.425l.707-.707 5.475 5.474-.707.708Z"/><path d="M11.052 3.425 5.577 8.899l-.707-.707 5.474-5.475.708.708Z"/></symbol>
	<symbol  xmlns="http://www.w3.org/2000/svg" viewBox="0 0 22 20" id="arrow-left">
		<path fill-rule="evenodd" clip-rule="evenodd" d="m10.27.503-9.154 8.5L.043 10l1.073.997 9.154 8.5v-1.994L2.19 10l8.08-7.503V.503Z"></path>
		<path d="M21.957 9.268v1.461h-20V9.268z"></path>
	</symbol>
	<symbol  xmlns="http://www.w3.org/2000/svg" viewBox="0 0 22 20" id="arrow-right">
		<path fill-rule="evenodd" clip-rule="evenodd" d="m11.73 19.497 9.154-8.5L21.957 10l-1.073-.997-9.155-8.5v1.994L19.81 10l-8.08 7.503v1.994Z"/><path d="M.043 10.732V9.27h20v1.46z"/>
	</symbol>
	<symbol  xmlns="http://www.w3.org/2000/svg" viewBox="0 0 20 22" id="arrow-top">
		<path fill-rule="evenodd" clip-rule="evenodd" d="m19.497 10.27-8.5-9.154L10 .043l-.997 1.073-8.5 9.154h1.994L10 2.19l7.503 8.08h1.994Z"></path>
		<path d="M10.732 21.957H9.27v-20h1.46z"></path>
	</symbol>
	<symbol  xmlns="http://www.w3.org/2000/svg" viewBox="0 0 7 13" id="bread-left">
		<path fill-rule="evenodd" clip-rule="evenodd" d="M7 0 .735 5.818 0 6.5l.735.682L7 13v-1.365L1.47 6.5 7 1.365V0Z"></path>
	</symbol>
	<symbol  xmlns="http://www.w3.org/2000/svg" viewBox="0 0 26 26" id="close">
		<path d="m.722 0 25.277 25.278-.722.722L0 .722z"></path>
		<path d="M0 25.278 25.278 0 26 .722.722 26z"></path>
	</symbol>
	<symbol  xmlns="http://www.w3.org/2000/svg" viewBox="0 0 35 47" id="label">
		<path d="M17.302 0C7.762 0 0 7.762 0 17.303c0 2.49.51 4.865 1.513 7.063 4.326 9.467 12.62 19.462 15.06 22.3a.963.963 0 0 0 1.46 0c2.438-2.838 10.733-12.832 15.06-22.3 1.004-2.198 1.513-4.574 1.513-7.063C34.606 7.764 26.843 0 17.302 0Zm0 26.29c-4.955 0-8.987-4.031-8.987-8.987s4.032-8.988 8.987-8.988c4.956 0 8.988 4.032 8.988 8.988 0 4.956-4.031 8.988-8.988 8.988Z" ></path>
	</symbol>
	<symbol  xmlns="http://www.w3.org/2000/svg" viewBox="0 0 320 50" id="logo">
		<path d="M3.05 4.246c-.472-1.136-.944-1.942-1.417-2.417A2.67 2.67 0 0 0 0 .992v-.62L1.294.31c1.356 0 2.547.258 3.575.775 1.027.516 1.869 1.57 2.526 3.161l4.869 11.591L18.766.62h1.571l-8.874 20.765H10.23L3.05 4.246ZM26.577 21.385c-1.418 0-2.66-.33-3.729-.992a6.846 6.846 0 0 1-2.495-2.696c-.576-1.157-.863-2.459-.863-3.905 0-1.612.287-2.986.863-4.122.595-1.137 1.407-1.994 2.434-2.573 1.027-.599 2.188-.898 3.482-.898 1.273 0 2.424.258 3.45.774a5.988 5.988 0 0 1 2.435 2.2c.596.93.894 2.005.894 3.224 0 .393-.02.837-.062 1.333l-.061.62H23.65c0 1.963.297 3.399.893 4.308.596.888 1.428 1.332 2.496 1.332.986 0 1.808-.217 2.465-.65.678-.455 1.325-1.096 1.941-1.922l.956.713a8.065 8.065 0 0 1-2.25 2.324c-.883.62-2.075.93-3.574.93Zm2.31-8.43c0-1.942-.225-3.316-.677-4.122-.452-.827-1.099-1.24-1.941-1.24-.78 0-1.418.424-1.91 1.27-.473.827-.71 2.191-.71 4.092h5.239ZM45.767 6.818c.37.269.637.569.801.9.165.31.247.474.247.495l-1.572 1.209a4.771 4.771 0 0 0-.554-.59 2.258 2.258 0 0 0-1.572-.619c-1.191 0-2.105.32-2.742.96l.062.466c.04.372.061.713.061 1.023v10.413h-4.006V10.538c0-1.054-.143-1.829-.431-2.325-.267-.516-.832-.775-1.695-.775h-.308v-.93h3.05c.7 0 1.244.093 1.634.28.41.165.73.454.955.867C40.807 6.685 42.1 6.2 43.58 6.2c.883 0 1.612.206 2.187.62ZM60.31 21.385a5.601 5.601 0 0 1-2.495-.558c-.74-.393-1.438-1.033-2.096-1.921L52.761 15v6.074h-4.006V4.65c0-1.054-.144-1.829-.431-2.325-.288-.516-.863-.774-1.726-.774h-.308V.62h3.698c.74 0 1.304.124 1.695.372.39.248.667.66.832 1.24.164.557.246 1.363.246 2.417v8.833l3.729-4.587c.698-.847 1.355-1.457 1.972-1.829.616-.372 1.438-.558 2.465-.558h.616v.806c-.616 0-1.17.124-1.664.372-.493.248-.965.64-1.417 1.178l-2.99 3.657 4.099 5.455c.986 1.343 1.941 2.128 2.866 2.355v.744c-.165.083-.473.155-.925.217a8.484 8.484 0 0 1-1.202.093ZM64.313 4.649c0-1.054-.144-1.829-.432-2.325-.287-.516-.862-.774-1.725-.774h-.308V.62h3.697c.74 0 1.305.124 1.695.372.39.248.668.66.832 1.24.164.557.246 1.363.246 2.417v2.727c.185-.144.504-.34.956-.589.821-.392 1.633-.588 2.434-.588 1.664 0 3.05.433 4.16 1.301 1.13.847 1.695 2.304 1.695 4.37v9.205h-4.006v-9.05c0-1.488-.267-2.572-.801-3.254-.514-.682-1.171-1.023-1.972-1.023-.555 0-1.14.186-1.757.558a4.2 4.2 0 0 0-.709.527v12.242h-4.005V4.65ZM87.73 21.385c-1.5 0-2.815-.33-3.945-.992a6.926 6.926 0 0 1-2.557-2.727c-.596-1.157-.894-2.449-.894-3.874 0-1.426.298-2.707.894-3.843a6.662 6.662 0 0 1 2.557-2.728C84.915 6.54 86.23 6.2 87.73 6.2c1.5 0 2.805.34 3.914 1.022A6.603 6.603 0 0 1 94.23 9.95c.596 1.136.894 2.417.894 3.843 0 1.425-.298 2.717-.894 3.874a6.86 6.86 0 0 1-2.588 2.727c-1.11.661-2.414.992-3.914.992Zm0-1.395c1.047 0 1.848-.568 2.403-1.704.555-1.137.832-2.635.832-4.494 0-1.86-.277-3.358-.832-4.494-.555-1.137-1.356-1.705-2.404-1.705-1.047 0-1.848.568-2.403 1.705-.555 1.136-.832 2.634-.832 4.494 0 1.86.277 3.357.832 4.494.555 1.136 1.356 1.704 2.403 1.704ZM98.238 10.073c-.555-1.157-1.027-1.963-1.417-2.418-.39-.475-.832-.733-1.325-.775v-.62l1.14-.061c1.376 0 2.526.268 3.451.805.945.538 1.767 1.56 2.465 3.069l2.712 5.95 4.19-9.515h1.664l-6.563 14.877h-1.109l-5.208-11.312ZM119.566 21.385c-1.499 0-2.814-.33-3.944-.992a6.92 6.92 0 0 1-2.557-2.727c-.596-1.157-.894-2.449-.894-3.874 0-1.426.298-2.707.894-3.843a6.658 6.658 0 0 1 2.557-2.728c1.13-.682 2.445-1.022 3.944-1.022 1.5 0 2.804.34 3.914 1.022a6.61 6.61 0 0 1 2.588 2.728c.596 1.136.894 2.417.894 3.843 0 1.425-.298 2.717-.894 3.874a6.867 6.867 0 0 1-2.588 2.727c-1.11.661-2.414.992-3.914.992Zm0-1.395c1.048 0 1.849-.568 2.404-1.704.554-1.137.832-2.635.832-4.494 0-1.86-.278-3.358-.832-4.494-.555-1.137-1.356-1.705-2.404-1.705-1.047 0-1.849.568-2.403 1.705-.555 1.136-.832 2.634-.832 4.494 0 1.86.277 3.357.832 4.494.554 1.136 1.356 1.704 2.403 1.704ZM135.674 21.385c-2.074 0-3.677-.703-4.806-2.108-1.11-1.425-1.664-3.254-1.664-5.485 0-2.232.564-4.05 1.694-5.455 1.151-1.426 2.794-2.138 4.931-2.138.739 0 1.53.155 2.372.464.308.145.596.3.863.465v-2.48c0-1.053-.144-1.828-.431-2.324-.288-.516-.863-.774-1.726-.774h-.308V.62h3.698c.739 0 1.304.124 1.694.372.391.248.668.66.832 1.24.165.557.247 1.363.247 2.417v16.426h-2.619l-1.079-1.395h-.154c-.185.29-.472.579-.863.868-.698.558-1.592.837-2.681.837Zm.617-1.395c.76 0 1.448-.33 2.064-.991.226-.228.462-.569.709-1.023V8.523a4.13 4.13 0 0 0-.74-.465c-.657-.31-1.283-.465-1.879-.465-2.054 0-3.082 2.066-3.082 6.199 0 1.921.226 3.44.678 4.556.473 1.095 1.223 1.642 2.25 1.642ZM158.319 21.385a5.601 5.601 0 0 1-2.496-.558c-.74-.393-1.438-1.033-2.096-1.921L150.769 15v6.074h-4.005V4.65c0-1.054-.144-1.829-.432-2.325-.287-.516-.863-.774-1.725-.774h-.309V.62h3.698c.74 0 1.305.124 1.695.372.39.248.667.66.832 1.24.164.557.246 1.363.246 2.417v8.833l3.729-4.587c.698-.847 1.356-1.457 1.972-1.829.616-.372 1.438-.558 2.465-.558h.616v.806c-.616 0-1.171.124-1.664.372-.493.248-.965.64-1.417 1.178l-2.989 3.657 4.098 5.455c.986 1.343 1.941 2.128 2.866 2.355v.744c-.164.083-.473.155-.925.217a8.478 8.478 0 0 1-1.201.093ZM167.954 21.385c-1.5 0-2.815-.33-3.945-.992a6.928 6.928 0 0 1-2.557-2.727c-.596-1.157-.894-2.449-.894-3.874 0-1.426.298-2.707.894-3.843a6.664 6.664 0 0 1 2.557-2.728c1.13-.682 2.445-1.022 3.945-1.022 1.499 0 2.804.34 3.913 1.022a6.597 6.597 0 0 1 2.588 2.728c.596 1.136.894 2.417.894 3.843 0 1.425-.298 2.717-.894 3.874a6.853 6.853 0 0 1-2.588 2.727c-1.109.661-2.414.992-3.913.992Zm0-1.395c1.047 0 1.848-.568 2.403-1.704.555-1.137.832-2.635.832-4.494 0-1.86-.277-3.358-.832-4.494-.555-1.137-1.356-1.705-2.403-1.705-1.048 0-1.849.568-2.404 1.705-.555 1.136-.832 2.634-.832 4.494 0 1.86.277 3.357.832 4.494.555 1.136 1.356 1.704 2.404 1.704ZM199.222 21.075l-1.171-1.178c0 .042-.267.217-.801.527-.514.31-1.171.6-1.972.868a7.718 7.718 0 0 1-2.527.403c-2.67 0-4.612-.444-5.824-1.333-1.191-.888-1.787-2.045-1.787-3.471 0-1.281.432-2.386 1.294-3.316.863-.95 2.055-1.818 3.575-2.604-.719-.64-1.469-1.508-2.25-2.603-.78-1.116-1.171-2.293-1.171-3.533 0-1.53.545-2.717 1.634-3.564C189.31.424 190.82 0 192.751 0c1.828 0 3.236.393 4.222 1.178.986.785 1.479 1.839 1.479 3.161 0 1.178-.432 2.273-1.294 3.285-.863.992-2.024 1.963-3.482 2.913l5.7 6.2c.555-.62 1.171-1.458 1.849-2.511.226-.33.472-.744.739-1.24l1.171.775c-.184.454-.41.899-.677 1.333a16.271 16.271 0 0 1-2.034 2.789l2.989 3.192h-4.191ZM192.751 1.24c-.739 0-1.284.268-1.633.806-.349.537-.524 1.467-.524 2.789 0 1.653.647 3.13 1.941 4.432.719-.661 1.264-1.354 1.634-2.077.39-.744.585-1.59.585-2.541 0-1.178-.205-2.035-.616-2.572-.391-.558-.853-.837-1.387-.837Zm3.266 18.41c.37-.207.74-.476 1.11-.806a51.826 51.826 0 0 0-1.603-1.767 68.148 68.148 0 0 1-1.325-1.426l-2.958-3.192c-1.397 1.24-2.095 2.614-2.095 4.122 0 1.198.329 2.149.986 2.851.657.682 1.623 1.023 2.897 1.023a5.957 5.957 0 0 0 2.988-.806ZM206.671 4.649c0-1.054-.144-1.829-.431-2.325-.288-.516-.863-.774-1.726-.774h-.308V.62h8.474c2.116 0 4.026.423 5.731 1.27 1.726.827 2.588 2.48 2.588 4.96 0 1.611-.451 2.861-1.355 3.75-.884.888-1.88 1.477-2.989 1.766-1.11.29-2.126.434-3.051.434h-2.927v8.275h-4.006V4.65Zm5.855 6.911c1.212 0 2.208-.372 2.989-1.115.78-.744 1.171-1.994 1.171-3.75 0-1.736-.391-2.976-1.171-3.72-.76-.744-1.705-1.115-2.835-1.115-.596 0-1.058.04-1.387.124l-.616.093v9.483h1.849ZM227.419 21.385c-1.664 0-2.958-.372-3.882-1.116-.904-.764-1.356-1.787-1.356-3.068 0-1.033.236-1.89.708-2.572.493-.682 1.346-1.199 2.558-1.55 1.212-.351 2.896-.527 5.053-.527h.463c0-1.797-.247-3.068-.74-3.812-.493-.765-1.222-1.147-2.188-1.147-.801 0-1.458.197-1.972.59-.513.392-.883 1.125-1.109 2.2h-1.695c0-.703.041-1.302.123-1.798.103-.496.319-.93.648-1.302.636-.723 2.177-1.084 4.622-1.084 2.054 0 3.615.547 4.683 1.642 1.089 1.075 1.633 2.696 1.633 4.866v8.368h-2.619l-1.078-1.395h-.154c-.185.29-.473.579-.863.868-.699.558-1.643.837-2.835.837Zm.924-1.55c.432 0 .802-.082 1.11-.248.308-.186.606-.433.893-.743.267-.29.473-.63.617-1.023v-3.874h-.463c-1.458 0-2.516.268-3.173.806-.658.516-.986 1.332-.986 2.448 0 .847.174 1.498.523 1.953.35.454.843.681 1.479.681ZM248.314 6.818c.369.269.637.569.801.9.164.31.246.474.246.495l-1.571 1.209a4.785 4.785 0 0 0-.555-.59 2.258 2.258 0 0 0-1.571-.619c-1.192 0-2.106.32-2.743.96l.062.466c.041.372.062.713.062 1.023v10.413h-4.006V10.538c0-1.054-.144-1.829-.432-2.325-.267-.516-.832-.775-1.694-.775h-.309v-.93h3.051c.698 0 1.243.093 1.633.28.411.165.729.454.955.867 1.11-.97 2.404-1.456 3.883-1.456.883 0 1.613.206 2.188.62ZM256.417 21.385c-1.418 0-2.517-.382-3.297-1.147-.781-.785-1.171-1.911-1.171-3.378V7.903H250.1V6.508h1.849V3.72l1.54-1.86h2.466v4.65h3.389v1.394h-3.389v9.143c0 1.116.133 1.89.4 2.325.267.413.668.62 1.202.62.575 0 1.15-.135 1.725-.404.226-.124.463-.268.709-.433l.432.867a7.739 7.739 0 0 1-.956.682c-.862.455-1.879.682-3.05.682ZM262.811 10.537c0-1.053-.144-1.828-.431-2.324-.267-.516-.832-.775-1.695-.775h-.308v-.93h3.05c.699 0 1.243.093 1.633.28.411.165.73.454.956.867 1.047-.97 2.547-1.456 4.499-1.456 1.951 0 3.41.464 4.375 1.394.986.91 1.479 2.345 1.479 4.308v9.174h-4.006V11.87c0-1.425-.267-2.469-.801-3.13-.513-.661-1.222-.992-2.126-.992-.637 0-1.202.093-1.695.28-.472.164-.852.392-1.14.681l.093.434c.082.248.123.65.123 1.209v10.723h-4.006V10.538ZM286.297 21.385c-1.417 0-2.66-.33-3.728-.992a6.85 6.85 0 0 1-2.496-2.696c-.575-1.157-.863-2.459-.863-3.905 0-1.612.288-2.986.863-4.122.596-1.137 1.407-1.994 2.434-2.573 1.027-.599 2.188-.898 3.482-.898 1.274 0 2.424.258 3.451.774a5.983 5.983 0 0 1 2.434 2.2c.596.93.894 2.005.894 3.224 0 .393-.02.837-.062 1.333l-.061.62h-9.275c0 1.963.298 3.399.893 4.308.596.888 1.428 1.332 2.496 1.332.986 0 1.808-.217 2.466-.65.677-.455 1.324-1.096 1.941-1.922l.955.713a8.077 8.077 0 0 1-2.249 2.324c-.884.62-2.075.93-3.575.93Zm2.311-8.43c0-1.942-.226-3.316-.678-4.122-.452-.827-1.099-1.24-1.941-1.24-.781 0-1.417.424-1.91 1.27-.473.827-.709 2.191-.709 4.092h5.238ZM305.488 6.818c.369.269.636.569.801.9.164.31.246.474.246.495l-1.571 1.209a4.785 4.785 0 0 0-.555-.59 2.258 2.258 0 0 0-1.571-.619c-1.192 0-2.106.32-2.743.96l.062.466c.041.372.062.713.062 1.023v10.413h-4.006V10.538c0-1.054-.144-1.829-.432-2.325-.267-.516-.832-.775-1.694-.775h-.309v-.93h3.051c.698 0 1.243.093 1.633.28.411.165.729.454.955.867 1.11-.97 2.404-1.456 3.883-1.456.883 0 1.612.206 2.188.62ZM313.683 21.385c-2.403 0-4.057-.424-4.961-1.27-.329-.31-.534-.744-.616-1.302-.082-.579-.123-1.374-.123-2.387h1.078c.185 1.075.606 1.942 1.263 2.604.658.64 1.572.96 2.743.96 2.054 0 3.081-.702 3.081-2.107 0-.537-.226-.982-.678-1.333-.431-.351-1.129-.744-2.095-1.178l-1.602-.681c-1.315-.579-2.301-1.21-2.958-1.891-.658-.682-.986-1.508-.986-2.48 0-1.301.534-2.314 1.602-3.037 1.089-.723 2.506-1.084 4.252-1.084 2.404 0 4.057.423 4.961 1.27.329.31.534.744.616 1.302.083.558.124 1.353.124 2.386h-1.079c-.185-1.074-.606-1.931-1.263-2.572-.657-.661-1.572-.992-2.743-.992-.883 0-1.54.197-1.972.59-.431.371-.647.877-.647 1.518 0 .516.175.95.524 1.301.37.331.925.662 1.664.992l1.849.775c1.52.64 2.609 1.291 3.266 1.953.678.64 1.017 1.487 1.017 2.541 0 1.322-.585 2.345-1.756 3.068-1.151.703-2.671 1.054-4.561 1.054ZM141.172 39.991c1.103-1.149 2.522-1.724 4.259-1.724 1.736 0 3.156.575 4.258 1.724 1.103 1.119 1.654 2.49 1.654 4.114 0 1.624-.551 2.996-1.654 4.114-1.117 1.134-2.537 1.701-4.258 1.701-1.722 0-3.141-.567-4.259-1.7-1.102-1.12-1.653-2.49-1.653-4.115 0-1.624.551-2.995 1.653-4.114Zm8.494 4.114c0-1.226-.4-2.26-1.2-3.102-.8-.828-1.812-1.242-3.035-1.242-1.224 0-2.235.414-3.036 1.241-.8.843-1.2 1.877-1.2 3.103 0 1.21.4 2.237 1.2 3.08.801.827 1.812 1.241 3.036 1.241 1.223 0 2.235-.414 3.035-1.241.8-.843 1.2-1.87 1.2-3.08ZM159.409 49.92c-1.676 0-3.066-.552-4.168-1.655-1.102-1.118-1.654-2.513-1.654-4.183 0-1.655.559-3.034 1.677-4.137 1.102-1.118 2.491-1.678 4.167-1.678 1.269 0 2.371.269 3.308.805v1.54c-.982-.567-2.009-.85-3.081-.85-1.269 0-2.318.413-3.149 1.24-.83.797-1.245 1.831-1.245 3.103 0 1.241.415 2.276 1.245 3.103.846.812 1.896 1.218 3.149 1.218 1.208 0 2.303-.322 3.284-.965v1.517c-1.026.628-2.204.942-3.533.942ZM167.89 49.644h-1.631v-11.1h1.631v4.665h6.727v-4.666h1.631v11.101h-1.631v-4.941h-6.727v4.941ZM180.967 39.991c1.103-1.149 2.522-1.724 4.259-1.724 1.736 0 3.156.575 4.258 1.724 1.103 1.119 1.654 2.49 1.654 4.114 0 1.624-.551 2.996-1.654 4.114-1.117 1.134-2.537 1.701-4.258 1.701-1.722 0-3.141-.567-4.259-1.7-1.102-1.12-1.653-2.49-1.653-4.115 0-1.624.551-2.995 1.653-4.114Zm8.495 4.114c0-1.226-.401-2.26-1.201-3.102-.8-.828-1.812-1.242-3.035-1.242s-2.235.414-3.036 1.241c-.8.843-1.2 1.877-1.2 3.103 0 1.21.4 2.237 1.2 3.08.801.827 1.813 1.241 3.036 1.241s2.235-.414 3.035-1.241c.8-.843 1.201-1.87 1.201-3.08ZM200.314 49.644h-6.139v-11.1h5.754c1.042 0 1.85.26 2.424.78.589.506.883 1.188.883 2.046 0 1.195-.453 2.007-1.359 2.436 1.389.414 2.084 1.364 2.084 2.85 0 .935-.317 1.67-.952 2.207-.634.52-1.532.781-2.695.781Zm-4.508-5.01v3.562h4.168c.74 0 1.314-.153 1.722-.46.407-.306.611-.743.611-1.31 0-.566-.204-1.003-.611-1.31-.408-.321-.982-.482-1.722-.482h-4.168Zm0-4.643v3.264h3.67c.679 0 1.208-.138 1.585-.414.378-.291.567-.697.567-1.218 0-1.088-.718-1.632-2.152-1.632h-3.67ZM210.941 48.426c.755 0 1.472-.176 2.152-.529.679-.352 1.231-.796 1.653-1.333v-1.54c-1.117-.735-2.303-1.103-3.556-1.103-.997 0-1.789.2-2.378.598-.574.398-.861.942-.861 1.632 0 .72.279 1.28.838 1.677.559.399 1.276.598 2.152.598Zm-.453 1.494c-1.163 0-2.152-.322-2.968-.965-.8-.674-1.2-1.578-1.2-2.712 0-1.119.423-2.015 1.268-2.69.846-.658 1.918-.988 3.217-.988 1.419 0 2.733.36 3.941 1.08v-1.103c0-1.854-1.2-2.78-3.601-2.78-1.284 0-2.477.375-3.579 1.126v-1.61c1.072-.673 2.378-1.01 3.919-1.01 1.495 0 2.68.36 3.556 1.08.891.705 1.336 1.716 1.336 3.034v4.573c0 .43.091.766.272 1.011a.94.94 0 0 0 .77.368c.242 0 .453-.046.634-.138v1.287c-.241.169-.604.253-1.087.253-.543 0-1.004-.145-1.382-.437-.362-.306-.588-.75-.679-1.333-1.102 1.303-2.575 1.954-4.417 1.954ZM222.329 49.644h-1.631v-11.1h1.631v4.665h6.728v-4.666h1.63v11.101h-1.63v-4.941h-6.728v4.941ZM247.049 49.644h-1.631v-11.1h1.631v11.1Zm-7.543 0h-4.96v-11.1h1.631v3.723h3.261c1.269 0 2.281.337 3.036 1.01.755.66 1.132 1.548 1.132 2.667 0 1.118-.362 2.015-1.087 2.689-.725.674-1.729 1.011-3.013 1.011Zm-3.329-5.93v4.482h3.035c.861 0 1.533-.191 2.016-.574.483-.399.725-.95.725-1.655 0-.72-.242-1.272-.725-1.655-.483-.398-1.155-.597-2.016-.597h-3.035ZM263.004 49.644h-6.139v-11.1h5.754c1.042 0 1.85.26 2.424.78.589.506.883 1.188.883 2.046 0 1.195-.453 2.007-1.359 2.436 1.389.414 2.084 1.364 2.084 2.85 0 .935-.317 1.67-.951 2.207-.635.52-1.533.781-2.696.781Zm-4.508-5.01v3.562h4.168c.74 0 1.314-.153 1.722-.46.408-.306.611-.743.611-1.31 0-.566-.203-1.003-.611-1.31-.408-.321-.982-.482-1.722-.482h-4.168Zm0-4.643v3.264h3.67c.679 0 1.208-.138 1.586-.414.377-.291.566-.697.566-1.218 0-1.088-.717-1.632-2.152-1.632h-3.67ZM279.966 49.644h-1.654v-14.25l-3.556 2.07V35.83l3.738-2.275h1.472v16.088ZM289.435 33.28c1.858 0 3.323.667 4.395 2 1.072 1.317 1.608 3.164 1.608 5.539.045 2.574-.566 4.742-1.835 6.504-1.268 1.747-2.952 2.612-5.051 2.597-1.314 0-2.431-.33-3.352-.988V47.3c.996.69 2.068 1.034 3.216 1.034 1.193 0 2.205-.345 3.035-1.034a5.649 5.649 0 0 0 1.767-2.528c.363-.996.559-2.1.589-3.31-.423.736-1.042 1.318-1.857 1.747-.801.429-1.729.643-2.786.643-1.42 0-2.635-.475-3.647-1.425-.982-.965-1.473-2.198-1.473-3.7 0-1.563.514-2.865 1.541-3.907 1.027-1.027 2.31-1.54 3.85-1.54Zm.091 1.586c-1.072 0-1.986.368-2.741 1.103-.725.72-1.087 1.64-1.087 2.758 0 1.103.37 1.984 1.11 2.643.74.66 1.661.989 2.763.989.922 0 1.782-.3 2.583-.897a4.542 4.542 0 0 0 1.608-2.23c-.136-1.393-.574-2.466-1.314-3.217-.725-.766-1.699-1.149-2.922-1.149ZM303.947 33.28c1.857 0 3.322.667 4.394 2 1.072 1.317 1.608 3.164 1.608 5.539.046 2.574-.566 4.742-1.834 6.504-1.269 1.747-2.953 2.612-5.052 2.597-1.314 0-2.431-.33-3.352-.988V47.3c.997.69 2.069 1.034 3.216 1.034 1.193 0 2.205-.345 3.036-1.034a5.664 5.664 0 0 0 1.767-2.528c.362-.996.558-2.1.588-3.31-.422.736-1.042 1.318-1.857 1.747-.8.429-1.729.643-2.786.643-1.42 0-2.635-.475-3.647-1.425-.982-.965-1.472-2.198-1.472-3.7 0-1.563.513-2.865 1.54-3.907 1.027-1.027 2.31-1.54 3.851-1.54Zm.09 1.586c-1.072 0-1.986.368-2.741 1.103-.724.72-1.087 1.64-1.087 2.758 0 1.103.37 1.984 1.11 2.643.74.66 1.661.989 2.764.989.921 0 1.782-.3 2.582-.897a4.542 4.542 0 0 0 1.608-2.23c-.136-1.393-.574-2.466-1.314-3.217-.725-.766-1.699-1.149-2.922-1.149ZM317.439 49.644h-1.654v-14.25l-3.556 2.07V35.83l3.737-2.275h1.473v16.088Z"></path>
	</symbol>
	<symbol  xmlns="http://www.w3.org/2000/svg" viewBox="0 0 57 23" id="logo-short">
		<path d="M4.112 4.624c-.49-1.173-.981-2.005-1.472-2.496a2.778 2.778 0 0 0-1.696-.864v-.64L2.288.56c1.408 0 2.645.267 3.712.8 1.067.533 1.941 1.621 2.624 3.264l5.056 11.968L20.432.88h1.632l-9.216 21.44h-1.28L4.112 4.624ZM28.864 22.52c-1.75 0-3.102-.381-4.056-1.144-.936-.78-1.404-1.785-1.404-3.016 0-.676.165-1.283.494-1.82.33-.555.72-1.031 1.17-1.43.468-.399 1.153-.927 2.054-1.586-.572-.52-1.022-1.005-1.352-1.456a6.48 6.48 0 0 1-.962-1.69 5.61 5.61 0 0 1-.363-2.002c0-1.248.415-2.236 1.247-2.964.85-.728 1.994-1.092 3.433-1.092 1.334 0 2.383.338 3.145 1.014.763.676 1.144 1.551 1.144 2.626 0 .763-.164 1.447-.494 2.054a6.183 6.183 0 0 1-1.274 1.586c-.52.468-1.195.988-2.027 1.56l5.225 5.72a16.699 16.699 0 0 0 1.716-2.21c.26-.416.468-.763.624-1.04l.52.39a13.688 13.688 0 0 1-2.314 3.458L37.706 22h-2.86l-1.04-1.118c-1.456 1.092-3.103 1.638-4.94 1.638Zm-.052-10.27c.78-.659 1.37-1.291 1.768-1.898.417-.624.625-1.335.625-2.132 0-1.005-.217-1.75-.65-2.236-.416-.503-.893-.754-1.43-.754-.607 0-1.127.251-1.56.754-.434.503-.65 1.3-.65 2.392 0 .607.13 1.196.39 1.768a6.7 6.7 0 0 0 .858 1.404c.311.381.528.615.65.702Zm.546 9.36a6.21 6.21 0 0 0 3.9-1.326l-5.356-5.85c-.658.572-1.16 1.144-1.508 1.716-.346.572-.52 1.222-.52 1.95 0 2.34 1.162 3.51 3.485 3.51ZM41.374 5.04c0-1.088-.15-1.888-.448-2.4-.299-.533-.896-.8-1.792-.8h-.32V.88h8.8c2.197 0 4.181.437 5.952 1.312 1.792.853 2.688 2.56 2.688 5.12 0 1.664-.47 2.955-1.408 3.872-.917.917-1.952 1.525-3.104 1.824-1.152.299-2.208.448-3.168.448h-3.04V22h-4.16V5.04Zm6.08 7.136c1.259 0 2.293-.384 3.104-1.152.81-.768 1.216-2.059 1.216-3.872 0-1.792-.405-3.072-1.216-3.84-.79-.768-1.77-1.152-2.944-1.152-.619 0-1.099.043-1.44.128l-.64.096v9.792h1.92Z" ></path>
	</symbol>
	<symbol id="logo-fixed" viewBox="0 0 57 23" xmlns="http://www.w3.org/2000/svg"><path d="M4.112 4.624c-.49-1.173-.981-2.005-1.472-2.496a2.778 2.778 0 0 0-1.696-.864v-.64L2.288.56c1.408 0 2.645.267 3.712.8 1.067.533 1.941 1.621 2.624 3.264l5.056 11.968L20.432.88h1.632l-9.216 21.44h-1.28L4.112 4.624ZM28.864 22.52c-1.75 0-3.102-.381-4.056-1.144-.936-.78-1.404-1.785-1.404-3.016 0-.676.165-1.283.494-1.82.33-.555.72-1.031 1.17-1.43.468-.399 1.153-.927 2.054-1.586-.572-.52-1.022-1.005-1.352-1.456a6.48 6.48 0 0 1-.962-1.69 5.61 5.61 0 0 1-.363-2.002c0-1.248.415-2.236 1.247-2.964.85-.728 1.994-1.092 3.433-1.092 1.334 0 2.383.338 3.145 1.014.763.676 1.144 1.551 1.144 2.626 0 .763-.164 1.447-.494 2.054a6.183 6.183 0 0 1-1.274 1.586c-.52.468-1.195.988-2.027 1.56l5.225 5.72a16.699 16.699 0 0 0 1.716-2.21c.26-.416.468-.763.624-1.04l.52.39a13.688 13.688 0 0 1-2.314 3.458L37.706 22h-2.86l-1.04-1.118c-1.456 1.092-3.103 1.638-4.94 1.638Zm-.052-10.27c.78-.659 1.37-1.291 1.768-1.898.417-.624.625-1.335.625-2.132 0-1.005-.217-1.75-.65-2.236-.416-.503-.893-.754-1.43-.754-.607 0-1.127.251-1.56.754-.434.503-.65 1.3-.65 2.392 0 .607.13 1.196.39 1.768a6.7 6.7 0 0 0 .858 1.404c.311.381.528.615.65.702Zm.546 9.36a6.21 6.21 0 0 0 3.9-1.326l-5.356-5.85c-.658.572-1.16 1.144-1.508 1.716-.346.572-.52 1.222-.52 1.95 0 2.34 1.162 3.51 3.485 3.51ZM41.374 5.04c0-1.088-.15-1.888-.448-2.4-.299-.533-.896-.8-1.792-.8h-.32V.88h8.8c2.197 0 4.181.437 5.952 1.312 1.792.853 2.688 2.56 2.688 5.12 0 1.664-.47 2.955-1.408 3.872-.917.917-1.952 1.525-3.104 1.824-1.152.299-2.208.448-3.168.448h-3.04V22h-4.16V5.04Zm6.08 7.136c1.259 0 2.293-.384 3.104-1.152.81-.768 1.216-2.059 1.216-3.872 0-1.792-.405-3.072-1.216-3.84-.79-.768-1.77-1.152-2.944-1.152-.619 0-1.099.043-1.44.128l-.64.096v9.792h1.92Z"/></symbol>
	<symbol  xmlns="http://www.w3.org/2000/svg" viewBox="0 0 20 2" id="minus">
		<path d="M.5.5h19v1H.5z"></path>
		<path d="M.5 1.5v-1h19v1z"></path>
	</symbol>
	<symbol  xmlns="http://www.w3.org/2000/svg" viewBox="0 0 16 16" id="phone">
		<path d="M14.997 16C6.466 16.012-.009 9.46 0 1.003 0 .45.448 0 1 0h2.64c.495 0 .916.364.989.854a12.417 12.417 0 0 0 1.015 3.397l.103.222a.707.707 0 0 1-.23.872c-.818.584-1.13 1.759-.493 2.675a11.832 11.832 0 0 0 2.956 2.957c.917.636 2.092.324 2.675-.493a.707.707 0 0 1 .873-.231l.221.102c1.078.5 2.222.842 3.397 1.016.49.073.854.494.854.99V15a1 1 0 0 1-1.001 1h-.002Z"></path>
	</symbol>
	<symbol  xmlns="http://www.w3.org/2000/svg" viewBox="0 0 20 20" id="plus">
		<path d="M.5 9.5h19v1H.5z"></path>
		<path d="M9.5.5h1v19h-1z"></path>
	</symbol>
	<symbol  xmlns="http://www.w3.org/2000/svg" viewBox="0 0 123 102" id="quote">
		<path d="M2.8 96c10.667-7.2 18.666-15.067 24-23.6 5.333-8.8 8-18.933 8-30.4l-12 4c-6.134 0-11.334-2.133-15.6-6.4C2.933 35.333.8 30.133.8 24c0-6.933 2.266-12.667 6.8-17.2C12.133 2.267 17.866 0 24.8 0c8 0 14.266 2.533 18.8 7.6 4.8 4.8 7.2 11.6 7.2 20.4 0 32.8-14.667 57.467-44 74l-4-6Zm72 0c10.666-7.2 18.666-15.067 24-23.6 5.333-8.8 8-18.933 8-30.4l-12 4c-6.133 0-11.334-2.133-15.6-6.4-4.267-4.267-6.4-9.467-6.4-15.6 0-6.933 2.267-12.667 6.8-17.2C84.133 2.267 89.867 0 96.8 0c8 0 14.266 2.533 18.8 7.6 4.8 4.8 7.2 11.6 7.2 20.4 0 32.8-14.667 57.467-44 74l-4-6Z" ></path>
	</symbol>
	<symbol id="search" viewBox="0 0 21 19" xmlns="http://www.w3.org/2000/svg"><path fill-rule="evenodd" clip-rule="evenodd" d="M13.41 11.96a6.5 6.5 0 1 0-9.631-8.732 6.5 6.5 0 0 0 9.63 8.732Zm.74.672A7.5 7.5 0 1 0 3.038 2.556 7.5 7.5 0 0 0 14.15 12.632Z" /><path fill-rule="evenodd" clip-rule="evenodd" d="m19 18-5.188-4.998.694-.72 5.188 4.998L19 18Z" /></symbol>
	<symbol id="share" viewBox="0 0 223 274" xmlns="http://www.w3.org/2000/svg"><path fill-rule="evenodd" clip-rule="evenodd" d="M187.522 61.136c13.996 0 25.341-11.345 25.341-25.34 0-13.996-11.345-25.341-25.341-25.341-13.995 0-25.341 11.345-25.341 25.34 0 13.996 11.346 25.341 25.341 25.341Zm0 10.137c19.594 0 35.477-15.884 35.477-35.478 0-19.593-15.883-35.477-35.477-35.477-19.593 0-35.477 15.884-35.477 35.477 0 5.04 1.051 9.834 2.945 14.175l-93.924 62.616c-6.455-6.721-15.534-10.905-25.589-10.905C15.884 101.681 0 117.565 0 137.159c0 19.593 15.884 35.477 35.477 35.477 9.591 0 18.293-3.806 24.679-9.99l95.719 59.825a35.337 35.337 0 0 0-3.83 16.052c0 19.593 15.884 35.477 35.477 35.477 19.594 0 35.477-15.884 35.477-35.477 0-19.594-15.883-35.478-35.477-35.478-10.165 0-19.332 4.276-25.8 11.127l-95.336-59.585a35.317 35.317 0 0 0 4.569-17.428c0-6.448-1.72-12.494-4.727-17.704l93.128-62.086c6.485 8.454 16.689 13.904 28.166 13.904Zm0 192.591c13.996 0 25.341-11.346 25.341-25.341 0-13.996-11.345-25.341-25.341-25.341-13.995 0-25.341 11.345-25.341 25.341 0 13.995 11.346 25.341 25.341 25.341ZM60.818 137.159c0 13.995-11.345 25.341-25.34 25.341-13.996 0-25.342-11.346-25.342-25.341 0-13.996 11.346-25.341 25.341-25.341 13.996 0 25.341 11.345 25.341 25.341Z" /></symbol>

	<symbol id="404" viewBox="0 0 829 342" xmlns="http://www.w3.org/2000/svg"><path d="M121.48 339v-4.8l28.8-9.12V267H.52v-7.2c28.16-50.24 49.12-95.04 62.88-134.4C77.48 86.04 84.52 45.24 84.52 3h49.92c0 45.12-10.4 87.36-31.2 126.72-20.8 39.04-51.36 81.6-91.68 127.68h138.72V139.32l43.2-43.68 6.72 6.72V257.4h34.56v9.6H200.2v58.08l28.8 9.12v4.8H121.48Zm158.873-168c0-51.84 12.32-93.28 36.959-124.32C342.273 15.64 374.593.12 414.273.12s71.84 15.52 96.479 46.56c24.961 31.04 37.441 72.48 37.441 124.32 0 52.16-12.48 93.76-37.441 124.8-24.639 30.72-56.799 46.08-96.479 46.08-40 0-72.32-15.36-96.961-46.08-24.639-31.04-36.959-72.64-36.959-124.8Zm52.8 0c0 52.8 7.36 93.28 22.08 121.44 14.72 28.16 34.4 42.24 59.04 42.24 24.32 0 43.84-14.08 58.56-42.24 15.04-28.16 22.56-68.64 22.56-121.44 0-52.48-7.52-92.8-22.56-120.96-14.72-28.48-34.24-42.72-58.56-42.72-24.64 0-44.32 14.24-59.04 42.72-14.72 28.16-22.08 68.48-22.08 120.96Zm382.233 168v-4.8l28.8-9.12V267h-149.76v-7.2c28.16-50.24 49.12-95.04 62.88-134.4 14.08-39.36 21.12-80.16 21.12-122.4h49.92c0 45.12-10.4 87.36-31.2 126.72-20.8 39.04-51.36 81.6-91.68 127.68h138.72V139.32l43.2-43.68 6.72 6.72V257.4h34.56v9.6h-34.56v58.08l28.8 9.12v4.8h-107.52Z" /></symbol>
	
</svg>